<svg id="kity_svg_6" xmlns="http://www.w3.org/2000/svg" xmlns:xlink="http://www.w3.org/1999/xlink" version="1.1" width="1744" height="1844" style="background: rgb(251, 251, 251); visibility: visible;" viewBox="0 0 1744 1844"><defs id="kity_defs_7"><linearGradient id="kity_linearGradient_17" x1="0" y1="0" x2="0" y2="1"><stop id="kity_stop_18" offset="0" stop-color="rgb(255, 255, 255)"></stop><stop id="kity_stop_19" offset="1" stop-color="rgb(204, 204, 204)"></stop></linearGradient><marker id="kity_marker_2" orient="auto" refX="6" refY="0" viewBox="-7 -7 14 14" markerWidth="7" markerHeight="7" markerUnits="userSpaceOnUse"><path id="kity_path_3" fill="rgb(115, 161, 191)" stroke="none" d="M6,0A6,6,0,1,1,-6,0A6,6,0,1,1,6,0"></path></marker></defs><g id="kity_g_8"><g id="minder1" text-rendering="optimize-speed"><g id="minder_connect_group1"><path id="kity_path_31" fill="none" stroke="rgb(115, 161, 191)" stroke-width="1" d="M455.0000072643161,1051.5000154301524A174.5,566,0,0,1,629.5000072643161,485.5000154301524"></path><path id="kity_path_39" fill="none" stroke="rgb(115, 161, 191)" stroke-width="1" d="M455.0000072643161,1051.5000154301524A174.5,566,0,0,0,629.5000072643161,1617.5000154301524"></path><path id="kity_path_47" fill="none" stroke="rgb(115, 161, 191)" stroke-width="1" d="M455.0000072643161,1051.5000154301524A174.5,0,0,0,1,280.5000072643161,1051.5000154301524"></path><path id="kity_path_55" fill="none" stroke="rgb(115, 161, 191)" stroke-width="1" d="M699.5000072643161,485.5000154301524C714.5000072643161,485.5000154301524,714.5000072643161,226.50001543015242,729.5000072643161,226.50001543015242L880.5000072643161,226.50001543015242"></path><path id="kity_path_63" fill="none" stroke="rgb(115, 161, 191)" stroke-width="1" d="M699.5000072643161,485.5000154301524C714.5000072643161,485.5000154301524,714.5000072643161,772.5000154301524,729.5000072643161,772.5000154301524L867.5000072643161,772.5000154301524"></path><path id="kity_path_71" fill="none" stroke="rgb(115, 161, 191)" stroke-width="1" d="M880.5000072643161,226.50001543015242C895.5000072643161,226.50001543015242,895.5000072643161,96.50001543015242,910.5000072643161,96.50001543015242L989.5000072643161,96.50001543015242"></path><path id="kity_path_79" fill="none" stroke="rgb(115, 161, 191)" stroke-width="1" d="M989.5000072643161,96.50001543015242C1004.5000072643161,96.50001543015242,1004.5000072643161,96.50001543015242,1019.5000072643161,96.50001543015242L1151.500007264316,96.50001543015242"></path><path id="kity_path_87" fill="none" stroke="rgb(115, 161, 191)" stroke-width="1" d="M1151.500007264316,96.50001543015242C1166.500007264316,96.50001543015242,1166.500007264316,44.500015430152416,1181.500007264316,44.500015430152416L1328.500007264316,44.500015430152416"></path><path id="kity_path_95" fill="none" stroke="rgb(115, 161, 191)" stroke-width="1" d="M1151.500007264316,96.50001543015242C1166.500007264316,96.50001543015242,1166.500007264316,96.50001543015242,1181.500007264316,96.50001543015242L1352.500007264316,96.50001543015242"></path><path id="kity_path_103" fill="none" stroke="rgb(115, 161, 191)" stroke-width="1" d="M1151.500007264316,96.50001543015242C1166.500007264316,96.50001543015242,1166.500007264316,148.50001543015242,1181.500007264316,148.50001543015242L1415.500007264316,148.50001543015242"></path><path id="kity_path_111" fill="none" stroke="rgb(115, 161, 191)" stroke-width="1" d="M880.5000072643161,226.50001543015242C895.5000072643161,226.50001543015242,895.5000072643161,356.5000154301524,910.5000072643161,356.5000154301524L989.5000072643161,356.5000154301524"></path><path id="kity_path_214" fill="none" stroke="rgb(115, 161, 191)" stroke-width="1" d="M1229.500007264316,252.50001543015242C1244.500007264316,252.50001543015242,1244.500007264316,200.50001543015242,1259.500007264316,200.50001543015242L1494.500007264316,200.50001543015242"></path><path id="kity_path_215" fill="none" stroke="rgb(115, 161, 191)" stroke-width="1" d="M1229.500007264316,252.50001543015242C1244.500007264316,252.50001543015242,1244.500007264316,252.50001543015242,1259.500007264316,252.50001543015242L1546.500007264316,252.50001543015242"></path><path id="kity_path_216" fill="none" stroke="rgb(115, 161, 191)" stroke-width="1" d="M1229.500007264316,252.50001543015242C1244.500007264316,252.50001543015242,1244.500007264316,304.5000154301524,1259.500007264316,304.5000154301524L1593.500007264316,304.5000154301524"></path><path id="kity_path_217" fill="none" stroke="rgb(115, 161, 191)" stroke-width="1" d="M1132.500007264316,356.5000154301524C1147.500007264316,356.5000154301524,1147.500007264316,252.50001543015242,1162.500007264316,252.50001543015242L1229.500007264316,252.50001543015242"></path><path id="kity_path_218" fill="none" stroke="rgb(115, 161, 191)" stroke-width="1" d="M1230.500007264316,356.5000154301524C1245.500007264316,356.5000154301524,1245.500007264316,356.5000154301524,1260.500007264316,356.5000154301524L1724.500007264316,356.5000154301524"></path><path id="kity_path_219" fill="none" stroke="rgb(115, 161, 191)" stroke-width="1" d="M1132.500007264316,356.5000154301524C1147.500007264316,356.5000154301524,1147.500007264316,356.5000154301524,1162.500007264316,356.5000154301524L1230.500007264316,356.5000154301524"></path><path id="kity_path_220" fill="none" stroke="rgb(115, 161, 191)" stroke-width="1" d="M1242.500007264316,408.5000154301524C1257.500007264316,408.5000154301524,1257.500007264316,408.5000154301524,1272.500007264316,408.5000154301524L1423.500007264316,408.5000154301524"></path><path id="kity_path_221" fill="none" stroke="rgb(115, 161, 191)" stroke-width="1" d="M1132.500007264316,356.5000154301524C1147.500007264316,356.5000154301524,1147.500007264316,408.5000154301524,1162.500007264316,408.5000154301524L1242.500007264316,408.5000154301524"></path><path id="kity_path_222" fill="none" stroke="rgb(115, 161, 191)" stroke-width="1" d="M1244.500007264316,460.5000154301524C1259.500007264316,460.5000154301524,1259.500007264316,460.5000154301524,1274.500007264316,460.5000154301524L1498.500007264316,460.5000154301524"></path><path id="kity_path_223" fill="none" stroke="rgb(115, 161, 191)" stroke-width="1" d="M1132.500007264316,356.5000154301524C1147.500007264316,356.5000154301524,1147.500007264316,460.5000154301524,1162.500007264316,460.5000154301524L1244.500007264316,460.5000154301524"></path><path id="kity_path_224" fill="none" stroke="rgb(115, 161, 191)" stroke-width="1" d="M989.5000072643161,356.5000154301524C1004.5000072643161,356.5000154301524,1004.5000072643161,356.5000154301524,1019.5000072643161,356.5000154301524L1132.500007264316,356.5000154301524"></path><path id="kity_path_226" fill="none" stroke="rgb(115, 161, 191)" stroke-width="1" d="M867.5000072643161,772.5000154301524C882.5000072643161,772.5000154301524,882.5000072643161,564.5000154301524,897.5000072643161,564.5000154301524L973.5000072643161,564.5000154301524"></path><path id="kity_path_234" fill="none" stroke="rgb(115, 161, 191)" stroke-width="1" d="M973.5000072643161,564.5000154301524C988.5000072643161,564.5000154301524,988.5000072643161,512.5000154301524,1003.5000072643161,512.5000154301524L1214.500007264316,512.5000154301524"></path><path id="kity_path_242" fill="none" stroke="rgb(115, 161, 191)" stroke-width="1" d="M973.5000072643161,564.5000154301524C988.5000072643161,564.5000154301524,988.5000072643161,616.5000154301524,1003.5000072643161,616.5000154301524L1081.500007264316,616.5000154301524"></path><path id="kity_path_250" fill="none" stroke="rgb(115, 161, 191)" stroke-width="1" d="M1081.500007264316,616.5000154301524C1096.500007264316,616.5000154301524,1096.500007264316,564.5000154301524,1111.500007264316,564.5000154301524L1251.500007264316,564.5000154301524"></path><path id="kity_path_258" fill="none" stroke="rgb(115, 161, 191)" stroke-width="1" d="M1081.500007264316,616.5000154301524C1096.500007264316,616.5000154301524,1096.500007264316,616.5000154301524,1111.500007264316,616.5000154301524L1191.500007264316,616.5000154301524"></path><path id="kity_path_266" fill="none" stroke="rgb(115, 161, 191)" stroke-width="1" d="M1081.500007264316,616.5000154301524C1096.500007264316,616.5000154301524,1096.500007264316,668.5000154301524,1111.500007264316,668.5000154301524L1205.500007264316,668.5000154301524"></path><path id="kity_path_274" fill="none" stroke="rgb(115, 161, 191)" stroke-width="1" d="M867.5000072643161,772.5000154301524C882.5000072643161,772.5000154301524,882.5000072643161,798.5000154301524,897.5000072643161,798.5000154301524L995.5000072643161,798.5000154301524"></path><path id="kity_path_282" fill="none" stroke="rgb(115, 161, 191)" stroke-width="1" d="M995.5000072643161,798.5000154301524C1010.5000072643161,798.5000154301524,1010.5000072643161,720.5000154301524,1025.500007264316,720.5000154301524L1103.500007264316,720.5000154301524"></path><path id="kity_path_290" fill="none" stroke="rgb(115, 161, 191)" stroke-width="1" d="M995.5000072643161,798.5000154301524C1010.5000072643161,798.5000154301524,1010.5000072643161,772.5000154301524,1025.500007264316,772.5000154301524L1104.500007264316,772.5000154301524"></path><path id="kity_path_298" fill="none" stroke="rgb(115, 161, 191)" stroke-width="1" d="M995.5000072643161,798.5000154301524C1010.5000072643161,798.5000154301524,1010.5000072643161,824.5000154301524,1025.500007264316,824.5000154301524L1116.500007264316,824.5000154301524"></path><path id="kity_path_306" fill="none" stroke="rgb(115, 161, 191)" stroke-width="1" d="M995.5000072643161,798.5000154301524C1010.5000072643161,798.5000154301524,1010.5000072643161,876.5000154301524,1025.500007264316,876.5000154301524L1107.500007264316,876.5000154301524"></path><path id="kity_path_314" fill="none" stroke="rgb(115, 161, 191)" stroke-width="1" d="M1103.500007264316,720.5000154301524C1118.500007264316,720.5000154301524,1118.500007264316,720.5000154301524,1133.500007264316,720.5000154301524L1344.500007264316,720.5000154301524"></path><path id="kity_path_322" fill="none" stroke="rgb(115, 161, 191)" stroke-width="1" d="M1104.500007264316,772.5000154301524C1119.500007264316,772.5000154301524,1119.500007264316,772.5000154301524,1134.500007264316,772.5000154301524L1322.500007264316,772.5000154301524"></path><path id="kity_path_330" fill="none" stroke="rgb(115, 161, 191)" stroke-width="1" d="M1116.500007264316,824.5000154301524C1131.500007264316,824.5000154301524,1131.500007264316,824.5000154301524,1146.500007264316,824.5000154301524L1274.500007264316,824.5000154301524"></path><path id="kity_path_338" fill="none" stroke="rgb(115, 161, 191)" stroke-width="1" d="M1107.500007264316,876.5000154301524C1122.500007264316,876.5000154301524,1122.500007264316,876.5000154301524,1137.500007264316,876.5000154301524L1229.500007264316,876.5000154301524"></path><path id="kity_path_346" fill="none" stroke="rgb(115, 161, 191)" stroke-width="1" d="M867.5000072643161,772.5000154301524C882.5000072643161,772.5000154301524,882.5000072643161,928.5000154301524,897.5000072643161,928.5000154301524L973.5000072643161,928.5000154301524"></path><path id="kity_path_354" fill="none" stroke="rgb(115, 161, 191)" stroke-width="1" d="M867.5000072643161,772.5000154301524C882.5000072643161,772.5000154301524,882.5000072643161,980.5000154301524,897.5000072643161,980.5000154301524L980.5000072643161,980.5000154301524"></path><path id="kity_path_362" fill="none" stroke="rgb(115, 161, 191)" stroke-width="1" d="M784.5000072643161,1517.5000154301524C799.5000072643161,1517.5000154301524,799.5000072643161,1420.5000154301524,814.5000072643161,1420.5000154301524L883.5000072643161,1420.5000154301524"></path><path id="kity_path_370" fill="none" stroke="rgb(115, 161, 191)" stroke-width="1" d="M784.5000072643161,1517.5000154301524C799.5000072643161,1517.5000154301524,799.5000072643161,1615.5000154301524,814.5000072643161,1615.5000154301524L894.5000072643161,1615.5000154301524"></path><path id="kity_path_402" fill="none" stroke="rgb(115, 161, 191)" stroke-width="1" d="M699.5000072643161,1617.5000154301524C714.5000072643161,1617.5000154301524,714.5000072643161,1517.5000154301524,729.5000072643161,1517.5000154301524L784.5000072643161,1517.5000154301524"></path><path id="kity_path_409" fill="none" stroke="rgb(115, 161, 191)" stroke-width="1" d="M883.5000072643161,1420.5000154301524C898.5000072643161,1420.5000154301524,898.5000072643161,1277.5000154301524,913.5000072643161,1277.5000154301524L980.5000072643161,1277.5000154301524"></path><path id="kity_path_410" fill="none" stroke="rgb(115, 161, 191)" stroke-width="1" d="M883.5000072643161,1420.5000154301524C898.5000072643161,1420.5000154301524,898.5000072643161,1511.5000154301524,913.5000072643161,1511.5000154301524L992.5000072643161,1511.5000154301524"></path><path id="kity_path_411" fill="none" stroke="rgb(115, 161, 191)" stroke-width="1" d="M883.5000072643161,1420.5000154301524C898.5000072643161,1420.5000154301524,898.5000072643161,1563.5000154301524,913.5000072643161,1563.5000154301524L980.5000072643161,1563.5000154301524"></path><path id="kity_path_413" fill="none" stroke="rgb(115, 161, 191)" stroke-width="1" d="M699.5000072643161,1617.5000154301524C714.5000072643161,1617.5000154301524,714.5000072643161,1745.5000154301524,729.5000072643161,1745.5000154301524L784.5000072643161,1745.5000154301524"></path><path id="kity_path_421" fill="none" stroke="rgb(115, 161, 191)" stroke-width="1" d="M980.5000072643161,1277.5000154301524C995.5000072643161,1277.5000154301524,995.5000072643161,1095.5000154301524,1010.5000072643161,1095.5000154301524L1065.500007264316,1095.5000154301524"></path><path id="kity_path_429" fill="none" stroke="rgb(115, 161, 191)" stroke-width="1" d="M980.5000072643161,1277.5000154301524C995.5000072643161,1277.5000154301524,995.5000072643161,1303.5000154301524,1010.5000072643161,1303.5000154301524L1101.500007264316,1303.5000154301524"></path><path id="kity_path_437" fill="none" stroke="rgb(115, 161, 191)" stroke-width="1" d="M980.5000072643161,1277.5000154301524C995.5000072643161,1277.5000154301524,995.5000072643161,1355.5000154301524,1010.5000072643161,1355.5000154301524L1090.500007264316,1355.5000154301524"></path><path id="kity_path_445" fill="none" stroke="rgb(115, 161, 191)" stroke-width="1" d="M980.5000072643161,1277.5000154301524C995.5000072643161,1277.5000154301524,995.5000072643161,1407.5000154301524,1010.5000072643161,1407.5000154301524L1101.500007264316,1407.5000154301524"></path><path id="kity_path_453" fill="none" stroke="rgb(115, 161, 191)" stroke-width="1" d="M980.5000072643161,1277.5000154301524C995.5000072643161,1277.5000154301524,995.5000072643161,1459.5000154301524,1010.5000072643161,1459.5000154301524L1125.500007264316,1459.5000154301524"></path><path id="kity_path_461" fill="none" stroke="rgb(115, 161, 191)" stroke-width="1" d="M1125.500007264316,1459.5000154301524C1140.500007264316,1459.5000154301524,1140.500007264316,1459.5000154301524,1155.500007264316,1459.5000154301524L1222.500007264316,1459.5000154301524"></path><path id="kity_path_469" fill="none" stroke="rgb(115, 161, 191)" stroke-width="1" d="M1065.500007264316,1095.5000154301524C1080.500007264316,1095.5000154301524,1080.500007264316,1043.5000154301524,1095.500007264316,1043.5000154301524L1247.500007264316,1043.5000154301524"></path><path id="kity_path_477" fill="none" stroke="rgb(115, 161, 191)" stroke-width="1" d="M1065.500007264316,1095.5000154301524C1080.500007264316,1095.5000154301524,1080.500007264316,1147.5000154301524,1095.500007264316,1147.5000154301524L1175.500007264316,1147.5000154301524"></path><path id="kity_path_485" fill="none" stroke="rgb(115, 161, 191)" stroke-width="1" d="M1175.500007264316,1147.5000154301524C1190.500007264316,1147.5000154301524,1190.500007264316,1095.5000154301524,1205.500007264316,1095.5000154301524L1309.500007264316,1095.5000154301524"></path><path id="kity_path_493" fill="none" stroke="rgb(115, 161, 191)" stroke-width="1" d="M1175.500007264316,1147.5000154301524C1190.500007264316,1147.5000154301524,1190.500007264316,1199.5000154301524,1205.500007264316,1199.5000154301524L1311.500007264316,1199.5000154301524"></path><path id="kity_path_501" fill="none" stroke="rgb(115, 161, 191)" stroke-width="1" d="M1311.500007264316,1199.5000154301524C1326.500007264316,1199.5000154301524,1326.500007264316,1147.5000154301524,1341.500007264316,1147.5000154301524L1419.500007264316,1147.5000154301524"></path><path id="kity_path_509" fill="none" stroke="rgb(115, 161, 191)" stroke-width="1" d="M1311.500007264316,1199.5000154301524C1326.500007264316,1199.5000154301524,1326.500007264316,1199.5000154301524,1341.500007264316,1199.5000154301524L1419.500007264316,1199.5000154301524"></path><path id="kity_path_517" fill="none" stroke="rgb(115, 161, 191)" stroke-width="1" d="M1311.500007264316,1199.5000154301524C1326.500007264316,1199.5000154301524,1326.500007264316,1251.5000154301524,1341.500007264316,1251.5000154301524L1420.500007264316,1251.5000154301524"></path><path id="kity_path_525" fill="none" stroke="rgb(115, 161, 191)" stroke-width="1" d="M784.5000072643161,1745.5000154301524C799.5000072643161,1745.5000154301524,799.5000072643161,1667.5000154301524,814.5000072643161,1667.5000154301524L905.5000072643161,1667.5000154301524"></path><path id="kity_path_533" fill="none" stroke="rgb(115, 161, 191)" stroke-width="1" d="M784.5000072643161,1745.5000154301524C799.5000072643161,1745.5000154301524,799.5000072643161,1719.5000154301524,814.5000072643161,1719.5000154301524L858.5000072643161,1719.5000154301524"></path><path id="kity_path_541" fill="none" stroke="rgb(115, 161, 191)" stroke-width="1" d="M784.5000072643161,1745.5000154301524C799.5000072643161,1745.5000154301524,799.5000072643161,1771.5000154301524,814.5000072643161,1771.5000154301524L882.5000072643161,1771.5000154301524"></path><path id="kity_path_549" fill="none" stroke="rgb(115, 161, 191)" stroke-width="1" d="M784.5000072643161,1745.5000154301524C799.5000072643161,1745.5000154301524,799.5000072643161,1823.5000154301524,814.5000072643161,1823.5000154301524L881.5000072643161,1823.5000154301524"></path><path id="kity_path_557" fill="none" stroke="rgb(115, 161, 191)" stroke-width="1" d="M208.50000726431608,1051.5000154301524C193.50000726431608,1051.5000154301524,193.50000726431608,1013.5000154301524,178.50000726431608,1013.5000154301524L55.50000726431608,1013.5000154301524"></path><path id="kity_path_565" fill="none" stroke="rgb(115, 161, 191)" stroke-width="1" d="M208.50000726431608,1051.5000154301524C193.50000726431608,1051.5000154301524,193.50000726431608,1065.5000154301524,178.50000726431608,1065.5000154301524L20.500007264316082,1065.5000154301524"></path><path id="kity_path_573" fill="none" stroke="rgb(115, 161, 191)" stroke-width="1" d="M208.50000726431608,1051.5000154301524C193.50000726431608,1051.5000154301524,193.50000726431608,1117.5000154301524,178.50000726431608,1117.5000154301524L86.50000726431608,1117.5000154301524"></path></g><g id="minder_node1"><path id="node_outline1" fill="rgb(115, 161, 191)" stroke="rgb(115, 161, 191)" d="M403.5000072643161,1031.5000154301524h103a5,5,0,0,1,5,5v30a5,5,0,0,1,-5,5h-103a5,5,0,0,1,-5,-5v-30a5,5,0,0,1,5,-5z" stroke-width="3"></path><g id="node_text1" fill="white"><text id="kity_text_22" text-rendering="inherit" font-size="16" dy=".8em" y="1041.1000153943896" x="422.5000072643161">数据结构</text></g></g><g id="kity_g_14" display="none"><path id="kity_path_15" fill="rgba(0, 92, 153, 0.5)" stroke="none" d="M739.5000072643161,1370.5000154301524h45v15h-45z"></path><path id="kity_path_16" fill="none" stroke="rgb(0, 76, 128)" d="M739.5000072643161,1385.5000154301524L784.5000072643161,1385.5000154301524" stroke-width="1"></path></g><g id="minder_node2"><g id="node_expander1" style="cursor: pointer;"><path id="kity_path_36" fill="white" stroke="gray" d="M630.5000102743506,485.5000069960952A6,6,0,1,1,618.5000102743506,485.5000069960952A6,6,0,1,1,630.5000102743506,485.5000069960952"></path><path id="kity_path_37" fill="none" stroke="gray" d="M620.0000102743506,485.5000069960952L629.0000102743506,485.5000069960952"></path></g><path id="node_outline2" fill="rgb(238, 243, 246)" stroke="rgb(115, 161, 191)" d="M634.500010676682,472.5000069960952h62a3,3,0,0,1,3,3v20a3,3,0,0,1,-3,3h-62a3,3,0,0,1,-3,-3v-20a3,3,0,0,1,3,-3z" stroke-width="1"></path><g id="node_text2" fill="black"><text id="kity_text_33" text-rendering="inherit" font-size="14" dy=".8em" y="476.40000696480274" x="651.500010676682">一维</text></g></g><g id="minder_node3"><g id="node_expander2" style="cursor: pointer;"><path id="kity_path_44" fill="white" stroke="gray" d="M630.5000102743506,1617.5000238642097A6,6,0,1,1,618.5000102743506,1617.5000238642097A6,6,0,1,1,630.5000102743506,1617.5000238642097"></path><path id="kity_path_45" fill="none" stroke="gray" d="M620.0000102743506,1617.5000238642097L629.0000102743506,1617.5000238642097"></path></g><path id="node_outline3" fill="rgb(238, 243, 246)" stroke="rgb(115, 161, 191)" d="M634.500010676682,1604.5000238642097h62a3,3,0,0,1,3,3v20a3,3,0,0,1,-3,3h-62a3,3,0,0,1,-3,-3v-20a3,3,0,0,1,3,-3z" stroke-width="1"></path><g id="node_text3" fill="black"><text id="kity_text_41" text-rendering="inherit" font-size="14" dy=".8em" y="1608.4000238329172" x="651.500010676682">二维</text></g></g><g id="minder_node4"><g id="node_expander3" style="cursor: pointer;"><path id="kity_path_52" fill="white" stroke="gray" d="M291.500005222857,1051.5000154301524A6,6,0,1,1,279.500005222857,1051.5000154301524A6,6,0,1,1,291.500005222857,1051.5000154301524"></path><path id="kity_path_53" fill="none" stroke="gray" d="M281.000005222857,1051.5000154301524L290.000005222857,1051.5000154301524"></path></g><path id="node_outline4" fill="rgb(238, 243, 246)" stroke="rgb(115, 161, 191)" d="M211.5000043734908,1038.5000154301524h64a3,3,0,0,1,3,3v20a3,3,0,0,1,-3,3h-64a3,3,0,0,1,-3,-3v-20a3,3,0,0,1,3,-3z" stroke-width="1"></path><g id="node_text4" fill="black"><text id="kity_text_49" text-rendering="inherit" font-size="14" dy=".8em" y="1042.40001539886" x="228.5000043734908">特殊</text></g></g><g id="minder_node5"><g id="node_expander4" style="cursor: pointer;"><path id="kity_path_60" fill="white" stroke="gray" d="M739.5000118985772,212.50000292807817A6,6,0,1,1,727.5000118985772,212.50000292807817A6,6,0,1,1,739.5000118985772,212.50000292807817"></path><path id="kity_path_61" fill="none" stroke="gray" d="M729.0000118985772,212.50000292807817L738.0000118985772,212.50000292807817"></path></g><path id="node_outline5" fill="none" stroke="none" d="M744.5000121369958,201.50000292807817h131a5,5,0,0,1,5,5v12a5,5,0,0,1,-5,5h-131a5,5,0,0,1,-5,-5v-12a5,5,0,0,1,5,-5z" stroke-width="3"></path><g id="node_text5" fill="black"><text id="kity_text_57" text-rendering="inherit" font-size="12" dy=".8em" y="204.70000290125608" x="749.5000121369958">基础（非受限线性表）</text></g></g><g id="minder_node6"><g id="node_expander5" style="cursor: pointer;"><path id="kity_path_68" fill="white" stroke="gray" d="M739.5000118985772,758.5000110641122A6,6,0,1,1,727.5000118985772,758.5000110641122A6,6,0,1,1,739.5000118985772,758.5000110641122"></path><path id="kity_path_69" fill="none" stroke="gray" d="M729.0000118985772,758.5000110641122L738.0000118985772,758.5000110641122"></path></g><path id="node_outline6" fill="none" stroke="none" d="M744.5000121369958,747.5000110641122h118a5,5,0,0,1,5,5v12a5,5,0,0,1,-5,5h-118a5,5,0,0,1,-5,-5v-12a5,5,0,0,1,5,-5z" stroke-width="3"></path><g id="node_text6" fill="black"><text id="kity_text_65" text-rendering="inherit" font-size="12" dy=".8em" y="750.7000110372901" x="749.5000121369958">高级（受限线性表）</text></g></g><g id="minder_node7"><g id="node_expander6" style="cursor: pointer;"><path id="kity_path_76" fill="white" stroke="gray" d="M920.5000145956874,82.50000099092722A6,6,0,1,1,908.5000145956874,82.50000099092722A6,6,0,1,1,920.5000145956874,82.50000099092722"></path><path id="kity_path_77" fill="none" stroke="gray" d="M910.0000145956874,82.50000099092722L919.0000145956874,82.50000099092722"></path></g><path id="node_outline7" fill="none" stroke="none" d="M925.500014834106,71.50000099092722h59a5,5,0,0,1,5,5v12a5,5,0,0,1,-5,5h-59a5,5,0,0,1,-5,-5v-12a5,5,0,0,1,5,-5z" stroke-width="3"></path><g id="node_text7" fill="black"><text id="kity_text_73" text-rendering="inherit" font-size="12" dy=".8em" y="74.70000096410513" x="930.500014834106">顺序结构</text></g></g><g id="minder_node8"><g id="node_expander7" style="cursor: pointer;"><path id="kity_path_84" fill="white" stroke="gray" d="M1029.500016219914,82.50000099092722A6,6,0,1,1,1017.500016219914,82.50000099092722A6,6,0,1,1,1029.500016219914,82.50000099092722"></path><path id="kity_path_85" fill="none" stroke="gray" d="M1019.000016219914,82.50000099092722L1028.000016219914,82.50000099092722"></path></g><path id="node_outline8" fill="none" stroke="none" d="M1034.5000164583325,71.50000099092722h112a5,5,0,0,1,5,5v12a5,5,0,0,1,-5,5h-112a5,5,0,0,1,-5,-5v-12a5,5,0,0,1,5,-5z" stroke-width="3"></path><g id="node_text8" fill="black"><text id="kity_text_81" text-rendering="inherit" font-size="12" dy=".8em" y="74.70000096410513" x="1039.5000164583325">数组 array (string)</text></g></g><g id="minder_node9"><g id="node_expander8" style="cursor: pointer;" display="none"><path id="kity_path_92" fill="white" stroke="gray" d="M1191.500018633902,30.500000216066837A6,6,0,1,1,1179.500018633902,30.500000216066837A6,6,0,1,1,1191.500018633902,30.500000216066837"></path><path id="kity_path_93" fill="none" stroke="gray"></path></g><path id="node_outline9" fill="none" stroke="none" d="M1196.5000188723207,19.500000216066837h127a5,5,0,0,1,5,5v12a5,5,0,0,1,-5,5h-127a5,5,0,0,1,-5,-5v-12a5,5,0,0,1,5,-5z" stroke-width="3"></path><g id="node_text9" fill="black"><text id="kity_text_89" text-rendering="inherit" font-size="12" dy=".8em" y="22.700000189244747" x="1201.5000188723207">支持 O(1) 的随机访问</text></g></g><g id="minder_node10"><g id="node_expander9" style="cursor: pointer;" display="none"><path id="kity_path_100" fill="white" stroke="gray" d="M1191.500018633902,82.50000099092722A6,6,0,1,1,1179.500018633902,82.50000099092722A6,6,0,1,1,1191.500018633902,82.50000099092722"></path><path id="kity_path_101" fill="none" stroke="gray"></path></g><path id="node_outline10" fill="none" stroke="none" d="M1196.5000188723207,71.50000099092722h151a5,5,0,0,1,5,5v12a5,5,0,0,1,-5,5h-151a5,5,0,0,1,-5,-5v-12a5,5,0,0,1,5,-5z" stroke-width="3"></path><g id="node_text10" fill="black"><text id="kity_text_97" text-rendering="inherit" font-size="12" dy=".8em" y="74.70000096410513" x="1201.5000188723207">平均为 O(n) 的插入和删除</text></g></g><g id="minder_node11"><g id="node_expander10" style="cursor: pointer;" display="none"><path id="kity_path_108" fill="white" stroke="gray" d="M1191.500018633902,134.5000017657876A6,6,0,1,1,1179.500018633902,134.5000017657876A6,6,0,1,1,1191.500018633902,134.5000017657876"></path><path id="kity_path_109" fill="none" stroke="gray"></path></g><path id="node_outline11" fill="none" stroke="none" d="M1196.5000188723207,123.5000017657876h214a5,5,0,0,1,5,5v12a5,5,0,0,1,-5,5h-214a5,5,0,0,1,-5,-5v-12a5,5,0,0,1,5,-5z" stroke-width="3"></path><g id="node_text11" fill="black"><text id="kity_text_105" text-rendering="inherit" font-size="12" dy=".8em" y="126.70000173896551" x="1201.5000188723207">警惕越界错误，导致 Stack Over Flow</text></g></g><g id="minder_node12" opacity="1"><g id="node_expander11" style="cursor: pointer;"><path id="kity_path_116" fill="white" stroke="gray" d="M920.5000145956874,342.50000486522913A6,6,0,1,1,908.5000145956874,342.50000486522913A6,6,0,1,1,920.5000145956874,342.50000486522913"></path><path id="kity_path_117" fill="none" stroke="gray" d="M910.0000145956874,342.50000486522913L919.0000145956874,342.50000486522913"></path></g><path id="node_outline12" fill="none" stroke="none" d="M925.500014834106,331.50000486522913h59a5,5,0,0,1,5,5v12a5,5,0,0,1,-5,5h-59a5,5,0,0,1,-5,-5v-12a5,5,0,0,1,5,-5z" stroke-width="3"></path><g id="node_text12" fill="black"><text id="kity_text_113" text-rendering="inherit" font-size="12" dy=".8em" y="334.70000483840704" x="930.500014834106">链式结构</text></g></g><g id="minder_node19"><g id="node_expander18" style="cursor: pointer;" display="none"><path id="kity_path_172" fill="white" stroke="gray" d="M1269.5000197961926,186.50000254064798A6,6,0,1,1,1257.5000197961926,186.50000254064798A6,6,0,1,1,1269.5000197961926,186.50000254064798"></path><path id="kity_path_173" fill="none" stroke="gray"></path></g><path id="node_outline19" fill="none" stroke="none" d="M1274.5000200346112,175.50000254064798h215a5,5,0,0,1,5,5v12a5,5,0,0,1,-5,5h-215a5,5,0,0,1,-5,-5v-12a5,5,0,0,1,5,-5z" stroke-width="3"></path><g id="node_text19" fill="black"><text id="kity_text_169" text-rendering="inherit" font-size="12" dy=".8em" y="178.7000025138259" x="1279.5000200346112">不支持随机访问，需要遍历去访问结点</text></g></g><g id="minder_node20"><g id="node_expander19" style="cursor: pointer;" display="none"><path id="kity_path_180" fill="white" stroke="gray" d="M1269.5000197961926,238.50000331550837A6,6,0,1,1,1257.5000197961926,238.50000331550837A6,6,0,1,1,1269.5000197961926,238.50000331550837"></path><path id="kity_path_181" fill="none" stroke="gray"></path></g><path id="node_outline20" fill="none" stroke="none" d="M1274.5000200346112,227.50000331550837h267a5,5,0,0,1,5,5v12a5,5,0,0,1,-5,5h-267a5,5,0,0,1,-5,-5v-12a5,5,0,0,1,5,-5z" stroke-width="3"></path><g id="node_text20" fill="black"><text id="kity_text_177" text-rendering="inherit" font-size="12" dy=".8em" y="230.70000328868628" x="1279.5000200346112">插入和删除只需要移动指针，时间复杂度为 O(1)</text></g></g><g id="minder_node21"><g id="node_expander20" style="cursor: pointer;" display="none"><path id="kity_path_188" fill="white" stroke="gray" d="M1269.5000197961926,290.50000409036875A6,6,0,1,1,1257.5000197961926,290.50000409036875A6,6,0,1,1,1269.5000197961926,290.50000409036875"></path><path id="kity_path_189" fill="none" stroke="gray"></path></g><path id="node_outline21" fill="none" stroke="none" d="M1274.5000200346112,279.50000409036875h314a5,5,0,0,1,5,5v12a5,5,0,0,1,-5,5h-314a5,5,0,0,1,-5,-5v-12a5,5,0,0,1,5,-5z" stroke-width="3"></path><g id="node_text21" fill="black"><text id="kity_text_185" text-rendering="inherit" font-size="12" dy=".8em" y="282.70000406354666" x="1279.5000200346112">每个结点需要额外的空间存储指针，需要的内存比数组大&#xa0;</text></g></g><g id="minder_node14"><g id="node_expander13" style="cursor: pointer;"><path id="kity_path_132" fill="white" stroke="gray" d="M1172.50001835078,238.50000331550837A6,6,0,1,1,1160.50001835078,238.50000331550837A6,6,0,1,1,1172.50001835078,238.50000331550837"></path><path id="kity_path_133" fill="none" stroke="gray" d="M1162.00001835078,238.50000331550837L1171.00001835078,238.50000331550837"></path></g><path id="node_outline14" fill="none" stroke="none" d="M1177.5000185891986,227.50000331550837h47a5,5,0,0,1,5,5v12a5,5,0,0,1,-5,5h-47a5,5,0,0,1,-5,-5v-12a5,5,0,0,1,5,-5z" stroke-width="3"></path><g id="node_text14" fill="black"><text id="kity_text_129" text-rendering="inherit" font-size="12" dy=".8em" y="230.70000328868628" x="1182.5000185891986">单链表</text></g></g><g id="minder_node22"><g id="node_expander21" style="cursor: pointer;" display="none"><path id="kity_path_196" fill="white" stroke="gray" d="M1270.5000198110938,342.50000486522913A6,6,0,1,1,1258.5000198110938,342.50000486522913A6,6,0,1,1,1270.5000198110938,342.50000486522913"></path><path id="kity_path_197" fill="none" stroke="gray"></path></g><path id="node_outline22" fill="none" stroke="none" d="M1275.5000200495124,331.50000486522913h444a5,5,0,0,1,5,5v12a5,5,0,0,1,-5,5h-444a5,5,0,0,1,-5,-5v-12a5,5,0,0,1,5,-5z" stroke-width="3"></path><g id="node_text22" fill="black"><text id="kity_text_193" text-rendering="inherit" font-size="12" dy=".8em" y="334.70000483840704" x="1280.5000200495124">在单链表的基础上，除头结点外，每个结点多了一个存放前驱结点内存地址的指针</text></g></g><g id="minder_node16" opacity="1"><g id="node_expander15" style="cursor: pointer;"><path id="kity_path_148" fill="white" stroke="gray" d="M1172.50001835078,342.50000486522913A6,6,0,1,1,1160.50001835078,342.50000486522913A6,6,0,1,1,1172.50001835078,342.50000486522913"></path><path id="kity_path_149" fill="none" stroke="gray" d="M1162.00001835078,342.50000486522913L1171.00001835078,342.50000486522913"></path></g><path id="node_outline16" fill="none" stroke="none" d="M1177.5000185891986,331.50000486522913h48a5,5,0,0,1,5,5v12a5,5,0,0,1,-5,5h-48a5,5,0,0,1,-5,-5v-12a5,5,0,0,1,5,-5z" stroke-width="3"></path><g id="node_text16" fill="black"><text id="kity_text_145" text-rendering="inherit" font-size="12" dy=".8em" y="334.70000483840704" x="1182.5000185891986">双链表</text></g></g><g id="minder_node23"><g id="node_expander22" style="cursor: pointer;" display="none"><path id="kity_path_204" fill="white" stroke="gray" d="M1282.5000199899077,394.5000056400895A6,6,0,1,1,1270.5000199899077,394.5000056400895A6,6,0,1,1,1282.5000199899077,394.5000056400895"></path><path id="kity_path_205" fill="none" stroke="gray"></path></g><path id="node_outline23" fill="none" stroke="none" d="M1287.5000202283263,383.5000056400895h131a5,5,0,0,1,5,5v12a5,5,0,0,1,-5,5h-131a5,5,0,0,1,-5,-5v-12a5,5,0,0,1,5,-5z" stroke-width="3"></path><g id="node_text23" fill="black"><text id="kity_text_201" text-rendering="inherit" font-size="12" dy=".8em" y="386.7000056132674" x="1292.5000202283263">尾节点指针指向头结点</text></g></g><g id="minder_node17"><g id="node_expander16" style="cursor: pointer;"><path id="kity_path_156" fill="white" stroke="gray" d="M1172.50001835078,394.5000056400895A6,6,0,1,1,1160.50001835078,394.5000056400895A6,6,0,1,1,1172.50001835078,394.5000056400895"></path><path id="kity_path_157" fill="none" stroke="gray" d="M1162.00001835078,394.5000056400895L1171.00001835078,394.5000056400895"></path></g><path id="node_outline17" fill="none" stroke="none" d="M1177.5000185891986,383.5000056400895h60a5,5,0,0,1,5,5v12a5,5,0,0,1,-5,5h-60a5,5,0,0,1,-5,-5v-12a5,5,0,0,1,5,-5z" stroke-width="3"></path><g id="node_text17" fill="black"><text id="kity_text_153" text-rendering="inherit" font-size="12" dy=".8em" y="386.7000056132674" x="1182.5000185891986">循环链表</text></g></g><g id="minder_node24"><g id="node_expander23" style="cursor: pointer;" display="none"><path id="kity_path_212" fill="white" stroke="gray" d="M1284.50002001971,446.5000064149499A6,6,0,1,1,1272.50002001971,446.5000064149499A6,6,0,1,1,1284.50002001971,446.5000064149499"></path><path id="kity_path_213" fill="none" stroke="gray"></path></g><path id="node_outline24" fill="none" stroke="none" d="M1289.5000202581286,435.5000064149499h204a5,5,0,0,1,5,5v12a5,5,0,0,1,-5,5h-204a5,5,0,0,1,-5,-5v-12a5,5,0,0,1,5,-5z" stroke-width="3"></path><g id="node_text24" fill="black"><text id="kity_text_209" text-rendering="inherit" font-size="12" dy=".8em" y="438.7000063881278" x="1294.5000202581286">借助数组，伴随指向后继结点的指针</text></g></g><g id="minder_node18"><g id="node_expander17" style="cursor: pointer;"><path id="kity_path_164" fill="white" stroke="gray" d="M1172.50001835078,446.5000064149499A6,6,0,1,1,1160.50001835078,446.5000064149499A6,6,0,1,1,1172.50001835078,446.5000064149499"></path><path id="kity_path_165" fill="none" stroke="gray" d="M1162.00001835078,446.5000064149499L1171.00001835078,446.5000064149499"></path></g><path id="node_outline18" fill="none" stroke="none" d="M1177.5000185891986,435.5000064149499h62a5,5,0,0,1,5,5v12a5,5,0,0,1,-5,5h-62a5,5,0,0,1,-5,-5v-12a5,5,0,0,1,5,-5z" stroke-width="3"></path><g id="node_text18" fill="black"><text id="kity_text_161" text-rendering="inherit" font-size="12" dy=".8em" y="438.7000063881278" x="1182.5000185891986">静态链表&#xa0;</text></g></g><g id="minder_node13"><g id="node_expander12" style="cursor: pointer;"><path id="kity_path_124" fill="white" stroke="gray" d="M1029.500016219914,342.50000486522913A6,6,0,1,1,1017.500016219914,342.50000486522913A6,6,0,1,1,1029.500016219914,342.50000486522913"></path><path id="kity_path_125" fill="none" stroke="gray" d="M1019.000016219914,342.50000486522913L1028.000016219914,342.50000486522913"></path></g><path id="node_outline13" fill="none" stroke="none" d="M1034.5000164583325,331.50000486522913h93a5,5,0,0,1,5,5v12a5,5,0,0,1,-5,5h-93a5,5,0,0,1,-5,-5v-12a5,5,0,0,1,5,-5z" stroke-width="3"></path><g id="node_text13" fill="black"><text id="kity_text_121" text-rendering="inherit" font-size="12" dy=".8em" y="334.70000483840704" x="1039.5000164583325">链表 linked list</text></g></g><g id="minder_node25"><g id="node_expander24" style="cursor: pointer;"><path id="kity_path_231" fill="white" stroke="gray" d="M907.5000144019723,550.5000079646707A6,6,0,1,1,895.5000144019723,550.5000079646707A6,6,0,1,1,907.5000144019723,550.5000079646707"></path><path id="kity_path_232" fill="none" stroke="gray" d="M897.0000144019723,550.5000079646707L906.0000144019723,550.5000079646707"></path></g><path id="node_outline25" fill="none" stroke="none" d="M912.5000146403909,539.5000079646707h56a5,5,0,0,1,5,5v12a5,5,0,0,1,-5,5h-56a5,5,0,0,1,-5,-5v-12a5,5,0,0,1,5,-5z" stroke-width="3"></path><g id="node_text25" fill="black"><text id="kity_text_228" text-rendering="inherit" font-size="12" dy=".8em" y="542.7000079378486" x="917.5000146403909">栈 stack</text></g></g><g id="minder_node26"><g id="node_expander25" style="cursor: pointer;" display="none"><path id="kity_path_239" fill="white" stroke="gray" d="M1013.5000159814954,498.5000071898103A6,6,0,1,1,1001.5000159814954,498.5000071898103A6,6,0,1,1,1013.5000159814954,498.5000071898103"></path><path id="kity_path_240" fill="none" stroke="gray"></path></g><path id="node_outline26" fill="none" stroke="none" d="M1018.500016219914,487.5000071898103h191a5,5,0,0,1,5,5v12a5,5,0,0,1,-5,5h-191a5,5,0,0,1,-5,-5v-12a5,5,0,0,1,5,-5z" stroke-width="3"></path><g id="node_text26" fill="black"><text id="kity_text_236" text-rendering="inherit" font-size="12" dy=".8em" y="490.7000071629882" x="1023.500016219914">顺序和链式都可以实现，先进后出</text></g></g><g id="minder_node27"><g id="node_expander26" style="cursor: pointer;"><path id="kity_path_247" fill="white" stroke="gray" d="M1013.5000159814954,602.500008739531A6,6,0,1,1,1001.5000159814954,602.500008739531A6,6,0,1,1,1013.5000159814954,602.500008739531"></path><path id="kity_path_248" fill="none" stroke="gray" d="M1003.0000159814954,602.500008739531L1012.0000159814954,602.500008739531"></path></g><path id="node_outline27" fill="none" stroke="none" d="M1018.500016219914,591.500008739531h58a5,5,0,0,1,5,5v12a5,5,0,0,1,-5,5h-58a5,5,0,0,1,-5,-5v-12a5,5,0,0,1,5,-5z" stroke-width="3"></path><g id="node_text27" fill="black"><text id="kity_text_244" text-rendering="inherit" font-size="12" dy=".8em" y="594.700008712709" x="1023.500016219914">实际应用</text></g></g><g id="minder_node28"><g id="node_expander27" style="cursor: pointer;" display="none"><path id="kity_path_255" fill="white" stroke="gray" d="M1121.5000175908208,550.5000079646707A6,6,0,1,1,1109.5000175908208,550.5000079646707A6,6,0,1,1,1121.5000175908208,550.5000079646707"></path><path id="kity_path_256" fill="none" stroke="gray"></path></g><path id="node_outline28" fill="none" stroke="none" d="M1126.5000178292394,539.5000079646707h120a5,5,0,0,1,5,5v12a5,5,0,0,1,-5,5h-120a5,5,0,0,1,-5,-5v-12a5,5,0,0,1,5,-5z" stroke-width="3"></path><g id="node_text28" fill="black"><text id="kity_text_252" text-rendering="inherit" font-size="12" dy=".8em" y="542.7000079378486" x="1131.5000178292394">浏览器的前进与后退</text></g></g><g id="minder_node29"><g id="node_expander28" style="cursor: pointer;" display="none"><path id="kity_path_263" fill="white" stroke="gray" d="M1121.5000175908208,602.500008739531A6,6,0,1,1,1109.5000175908208,602.500008739531A6,6,0,1,1,1121.5000175908208,602.500008739531"></path><path id="kity_path_264" fill="none" stroke="gray"></path></g><path id="node_outline29" fill="none" stroke="none" d="M1126.5000178292394,591.500008739531h60a5,5,0,0,1,5,5v12a5,5,0,0,1,-5,5h-60a5,5,0,0,1,-5,-5v-12a5,5,0,0,1,5,-5z" stroke-width="3"></path><g id="node_text29" fill="black"><text id="kity_text_260" text-rendering="inherit" font-size="12" dy=".8em" y="594.700008712709" x="1131.5000178292394">括号匹配</text></g></g><g id="minder_node30"><g id="node_expander29" style="cursor: pointer;" display="none"><path id="kity_path_271" fill="white" stroke="gray" d="M1121.5000175908208,654.5000095143914A6,6,0,1,1,1109.5000175908208,654.5000095143914A6,6,0,1,1,1121.5000175908208,654.5000095143914"></path><path id="kity_path_272" fill="none" stroke="gray"></path></g><path id="node_outline30" fill="none" stroke="none" d="M1126.5000178292394,643.5000095143914h74a5,5,0,0,1,5,5v12a5,5,0,0,1,-5,5h-74a5,5,0,0,1,-5,-5v-12a5,5,0,0,1,5,-5z" stroke-width="3"></path><g id="node_text30" fill="black"><text id="kity_text_268" text-rendering="inherit" font-size="12" dy=".8em" y="646.7000094875693" x="1131.5000178292394">表达式计算&#xa0;</text></g></g><g id="minder_node31"><g id="node_expander30" style="cursor: pointer;"><path id="kity_path_279" fill="white" stroke="gray" d="M907.5000144019723,784.5000114515424A6,6,0,1,1,895.5000144019723,784.5000114515424A6,6,0,1,1,907.5000144019723,784.5000114515424"></path><path id="kity_path_280" fill="none" stroke="gray" d="M897.0000144019723,784.5000114515424L906.0000144019723,784.5000114515424"></path></g><path id="node_outline31" fill="none" stroke="none" d="M912.5000146403909,773.5000114515424h78a5,5,0,0,1,5,5v12a5,5,0,0,1,-5,5h-78a5,5,0,0,1,-5,-5v-12a5,5,0,0,1,5,-5z" stroke-width="3"></path><g id="node_text31" fill="black"><text id="kity_text_276" text-rendering="inherit" font-size="12" dy=".8em" y="776.7000114247203" x="917.5000146403909">队列&#xa0; queue</text></g></g><g id="minder_node32"><g id="node_expander31" style="cursor: pointer;"><path id="kity_path_287" fill="white" stroke="gray" d="M1035.500016309321,706.5000102892518A6,6,0,1,1,1023.5000163093209,706.5000102892518A6,6,0,1,1,1035.500016309321,706.5000102892518"></path><path id="kity_path_288" fill="none" stroke="gray" d="M1025.000016309321,706.5000102892518L1034.000016309321,706.5000102892518"></path></g><path id="node_outline32" fill="none" stroke="none" d="M1040.5000165477395,695.5000102892518h58a5,5,0,0,1,5,5v12a5,5,0,0,1,-5,5h-58a5,5,0,0,1,-5,-5v-12a5,5,0,0,1,5,-5z" stroke-width="3"></path><g id="node_text32" fill="black"><text id="kity_text_284" text-rendering="inherit" font-size="12" dy=".8em" y="698.7000102624297" x="1045.5000165477395">普通队列</text></g></g><g id="minder_node33"><g id="node_expander32" style="cursor: pointer;"><path id="kity_path_295" fill="white" stroke="gray" d="M1035.500016309321,758.5000110641122A6,6,0,1,1,1023.5000163093209,758.5000110641122A6,6,0,1,1,1035.500016309321,758.5000110641122"></path><path id="kity_path_296" fill="none" stroke="gray" d="M1025.000016309321,758.5000110641122L1034.000016309321,758.5000110641122"></path></g><path id="node_outline33" fill="none" stroke="none" d="M1040.5000165477395,747.5000110641122h59a5,5,0,0,1,5,5v12a5,5,0,0,1,-5,5h-59a5,5,0,0,1,-5,-5v-12a5,5,0,0,1,5,-5z" stroke-width="3"></path><g id="node_text33" fill="black"><text id="kity_text_292" text-rendering="inherit" font-size="12" dy=".8em" y="750.7000110372901" x="1045.5000165477395">双边队列</text></g></g><g id="minder_node34"><g id="node_expander33" style="cursor: pointer;"><path id="kity_path_303" fill="white" stroke="gray" d="M1035.500016309321,810.5000118389726A6,6,0,1,1,1023.5000163093209,810.5000118389726A6,6,0,1,1,1035.500016309321,810.5000118389726"></path><path id="kity_path_304" fill="none" stroke="gray" d="M1025.000016309321,810.5000118389726L1034.000016309321,810.5000118389726"></path></g><path id="node_outline34" fill="none" stroke="none" d="M1040.5000165477395,799.5000118389726h71a5,5,0,0,1,5,5v12a5,5,0,0,1,-5,5h-71a5,5,0,0,1,-5,-5v-12a5,5,0,0,1,5,-5z" stroke-width="3"></path><g id="node_text34" fill="black"><text id="kity_text_300" text-rendering="inherit" font-size="12" dy=".8em" y="802.7000118121505" x="1045.5000165477395">优先级队列</text></g></g><g id="minder_node35"><g id="node_expander34" style="cursor: pointer;"><path id="kity_path_311" fill="white" stroke="gray" d="M1035.500016309321,862.500012613833A6,6,0,1,1,1023.5000163093209,862.500012613833A6,6,0,1,1,1035.500016309321,862.500012613833"></path><path id="kity_path_312" fill="none" stroke="gray" d="M1025.000016309321,862.500012613833L1034.000016309321,862.500012613833"></path></g><path id="node_outline35" fill="none" stroke="none" d="M1040.5000165477395,851.500012613833h62a5,5,0,0,1,5,5v12a5,5,0,0,1,-5,5h-62a5,5,0,0,1,-5,-5v-12a5,5,0,0,1,5,-5z" stroke-width="3"></path><g id="node_text35" fill="black"><text id="kity_text_308" text-rendering="inherit" font-size="12" dy=".8em" y="854.7000125870109" x="1045.5000165477395">实际应用&#xa0;</text></g></g><g id="minder_node36"><g id="node_expander35" style="cursor: pointer;" display="none"><path id="kity_path_319" fill="white" stroke="gray" d="M1143.5000179186463,706.5000102892518A6,6,0,1,1,1131.5000179186463,706.5000102892518A6,6,0,1,1,1143.5000179186463,706.5000102892518"></path><path id="kity_path_320" fill="none" stroke="gray"></path></g><path id="node_outline36" fill="none" stroke="none" d="M1148.500018157065,695.5000102892518h191a5,5,0,0,1,5,5v12a5,5,0,0,1,-5,5h-191a5,5,0,0,1,-5,-5v-12a5,5,0,0,1,5,-5z" stroke-width="3"></path><g id="node_text36" fill="black"><text id="kity_text_316" text-rendering="inherit" font-size="12" dy=".8em" y="698.7000102624297" x="1153.500018157065">顺序和链式都可以实现，先进先出</text></g></g><g id="minder_node37"><g id="node_expander36" style="cursor: pointer;" display="none"><path id="kity_path_327" fill="white" stroke="gray" d="M1144.5000179335475,758.5000110641122A6,6,0,1,1,1132.5000179335475,758.5000110641122A6,6,0,1,1,1144.5000179335475,758.5000110641122"></path><path id="kity_path_328" fill="none" stroke="gray"></path></g><path id="node_outline37" fill="none" stroke="none" d="M1149.500018171966,747.5000110641122h168a5,5,0,0,1,5,5v12a5,5,0,0,1,-5,5h-168a5,5,0,0,1,-5,-5v-12a5,5,0,0,1,5,-5z" stroke-width="3"></path><g id="node_text37" fill="black"><text id="kity_text_324" text-rendering="inherit" font-size="12" dy=".8em" y="750.7000110372901" x="1154.500018171966">入口和出口都可以进队和出队</text></g></g><g id="minder_node38"><g id="node_expander37" style="cursor: pointer;" display="none"><path id="kity_path_335" fill="white" stroke="gray" d="M1156.5000181123614,810.5000118389726A6,6,0,1,1,1144.5000181123614,810.5000118389726A6,6,0,1,1,1156.5000181123614,810.5000118389726"></path><path id="kity_path_336" fill="none" stroke="gray"></path></g><path id="node_outline38" fill="none" stroke="none" d="M1161.50001835078,799.5000118389726h108a5,5,0,0,1,5,5v12a5,5,0,0,1,-5,5h-108a5,5,0,0,1,-5,-5v-12a5,5,0,0,1,5,-5z" stroke-width="3"></path><g id="node_text38" fill="black"><text id="kity_text_332" text-rendering="inherit" font-size="12" dy=".8em" y="802.7000118121505" x="1166.50001835078">根据优先级来出队</text></g></g><g id="minder_node39"><g id="node_expander38" style="cursor: pointer;" display="none"><path id="kity_path_343" fill="white" stroke="gray" d="M1147.500017978251,862.500012613833A6,6,0,1,1,1135.500017978251,862.500012613833A6,6,0,1,1,1147.500017978251,862.500012613833"></path><path id="kity_path_344" fill="none" stroke="gray"></path></g><path id="node_outline39" fill="none" stroke="none" d="M1152.5000182166696,851.500012613833h72a5,5,0,0,1,5,5v12a5,5,0,0,1,-5,5h-72a5,5,0,0,1,-5,-5v-12a5,5,0,0,1,5,-5z" stroke-width="3"></path><g id="node_text39" fill="black"><text id="kity_text_340" text-rendering="inherit" font-size="12" dy=".8em" y="854.7000125870109" x="1157.5000182166696">LRU Cache</text></g></g><g id="minder_node40"><g id="node_expander39" style="cursor: pointer;" display="none"><path id="kity_path_351" fill="white" stroke="gray" d="M907.5000144019723,914.5000133886933A6,6,0,1,1,895.5000144019723,914.5000133886933A6,6,0,1,1,907.5000144019723,914.5000133886933"></path><path id="kity_path_352" fill="none" stroke="gray"></path></g><path id="node_outline40" fill="none" stroke="none" d="M912.5000146403909,903.5000133886933h56a5,5,0,0,1,5,5v12a5,5,0,0,1,-5,5h-56a5,5,0,0,1,-5,-5v-12a5,5,0,0,1,5,-5z" stroke-width="3"></path><g id="node_text40" fill="black"><text id="kity_text_348" text-rendering="inherit" font-size="12" dy=".8em" y="906.7000133618712" x="917.5000146403909">集合 set</text></g></g><g id="minder_node41"><g id="node_expander40" style="cursor: pointer;" display="none"><path id="kity_path_359" fill="white" stroke="gray" d="M907.5000144019723,966.5000141635537A6,6,0,1,1,895.5000144019723,966.5000141635537A6,6,0,1,1,907.5000144019723,966.5000141635537"></path><path id="kity_path_360" fill="none" stroke="gray"></path></g><path id="node_outline41" fill="none" stroke="none" d="M912.5000146403909,955.5000141635537h63a5,5,0,0,1,5,5v12a5,5,0,0,1,-5,5h-63a5,5,0,0,1,-5,-5v-12a5,5,0,0,1,5,-5z" stroke-width="3"></path><g id="node_text41" fill="black"><text id="kity_text_356" text-rendering="inherit" font-size="12" dy=".8em" y="958.7000141367316" x="917.5000146403909">映射 map</text></g></g><g id="minder_node42" opacity="1"><g id="node_expander41" style="cursor: pointer;"><path id="kity_path_367" fill="white" stroke="gray" d="M824.5000131651759,1406.5000207200646A6,6,0,1,1,812.5000131651759,1406.5000207200646A6,6,0,1,1,824.5000131651759,1406.5000207200646"></path><path id="kity_path_368" fill="none" stroke="gray" d="M814.0000131651759,1406.5000207200646L823.0000131651759,1406.5000207200646"></path></g><path id="node_outline42" fill="none" stroke="none" d="M829.5000134035945,1395.5000207200646h49a5,5,0,0,1,5,5v12a5,5,0,0,1,-5,5h-49a5,5,0,0,1,-5,-5v-12a5,5,0,0,1,5,-5z" stroke-width="3"></path><g id="node_text42" fill="black"><text id="kity_text_364" text-rendering="inherit" font-size="12" dy=".8em" y="1398.7000206932425" x="834.5000134035945">树 tree</text></g></g><g id="minder_node43" opacity="1"><g id="node_expander42" style="cursor: pointer;" display="none"><path id="kity_path_375" fill="white" stroke="gray" d="M824.5000131651759,1601.500023625791A6,6,0,1,1,812.5000131651759,1601.500023625791A6,6,0,1,1,824.5000131651759,1601.500023625791"></path><path id="kity_path_376" fill="none" stroke="gray"></path></g><path id="node_outline43" fill="none" stroke="none" d="M829.5000134035945,1590.500023625791h60a5,5,0,0,1,5,5v12a5,5,0,0,1,-5,5h-60a5,5,0,0,1,-5,-5v-12a5,5,0,0,1,5,-5z" stroke-width="3"></path><g id="node_text43" fill="black"><text id="kity_text_372" text-rendering="inherit" font-size="12" dy=".8em" y="1593.700023598969" x="834.5000134035945">图 graph</text></g></g><g id="minder_node47"><g id="node_expander46" style="cursor: pointer;"><path id="kity_path_407" fill="white" stroke="gray" d="M739.5000118985772,1503.5000221654773A6,6,0,1,1,727.5000118985772,1503.5000221654773A6,6,0,1,1,739.5000118985772,1503.5000221654773"></path><path id="kity_path_408" fill="none" stroke="gray" d="M729.0000118985772,1503.5000221654773L738.0000118985772,1503.5000221654773"></path></g><path id="node_outline47" fill="none" stroke="none" d="M744.5000121369958,1492.5000221654773h35a5,5,0,0,1,5,5v12a5,5,0,0,1,-5,5h-35a5,5,0,0,1,-5,-5v-12a5,5,0,0,1,5,-5z" stroke-width="3"></path><g id="node_text47" fill="black"><text id="kity_text_404" text-rendering="inherit" font-size="12" dy=".8em" y="1495.7000221386552" x="749.5000121369958">基础</text></g></g><g id="minder_node44"><g id="node_expander43" style="cursor: pointer;"><path id="kity_path_383" fill="white" stroke="gray" d="M923.5000146403909,1263.5000185891986A6,6,0,1,1,911.5000146403909,1263.5000185891986A6,6,0,1,1,923.5000146403909,1263.5000185891986"></path><path id="kity_path_384" fill="none" stroke="gray" d="M913.0000146403909,1263.5000185891986L922.0000146403909,1263.5000185891986"></path></g><path id="node_outline44" fill="none" stroke="none" d="M928.5000148788095,1252.5000185891986h47a5,5,0,0,1,5,5v12a5,5,0,0,1,-5,5h-47a5,5,0,0,1,-5,-5v-12a5,5,0,0,1,5,-5z" stroke-width="3"></path><g id="node_text44" fill="black"><text id="kity_text_380" text-rendering="inherit" font-size="12" dy=".8em" y="1255.7000185623765" x="933.5000148788095">二叉树</text></g></g><g id="minder_node45"><g id="node_expander44" style="cursor: pointer;" display="none"><path id="kity_path_391" fill="white" stroke="gray" d="M923.5000146403909,1497.5000220760703A6,6,0,1,1,911.5000146403909,1497.5000220760703A6,6,0,1,1,923.5000146403909,1497.5000220760703"></path><path id="kity_path_392" fill="none" stroke="gray"></path></g><path id="node_outline45" fill="none" stroke="none" d="M928.5000148788095,1486.5000220760703h59a5,5,0,0,1,5,5v12a5,5,0,0,1,-5,5h-59a5,5,0,0,1,-5,-5v-12a5,5,0,0,1,5,-5z" stroke-width="3"></path><g id="node_text45" fill="black"><text id="kity_text_388" text-rendering="inherit" font-size="12" dy=".8em" y="1489.7000220492482" x="933.5000148788095">哈夫曼树</text></g></g><g id="minder_node46"><g id="node_expander45" style="cursor: pointer;" display="none"><path id="kity_path_399" fill="white" stroke="gray" d="M923.5000146403909,1549.5000228509307A6,6,0,1,1,911.5000146403909,1549.5000228509307A6,6,0,1,1,923.5000146403909,1549.5000228509307"></path><path id="kity_path_400" fill="none" stroke="gray"></path></g><path id="node_outline46" fill="none" stroke="none" d="M928.5000148788095,1538.5000228509307h47a5,5,0,0,1,5,5v12a5,5,0,0,1,-5,5h-47a5,5,0,0,1,-5,-5v-12a5,5,0,0,1,5,-5z" stroke-width="3"></path><g id="node_text46" fill="black"><text id="kity_text_396" text-rendering="inherit" font-size="12" dy=".8em" y="1541.7000228241086" x="933.5000148788095">字典树</text></g></g><g id="kity_g_12" display="none"><path id="kity_path_13" fill="none" stroke="rgb(66, 94, 112)" d="M744.5000072643161,1390.5000154301524h35a5,5,0,0,1,5,5v12a5,5,0,0,1,-5,5h-35a5,5,0,0,1,-5,-5v-12a5,5,0,0,1,5,-5z" stroke-width="5"></path></g><g id="minder_node48"><g id="node_expander47" style="cursor: pointer;"><path id="kity_path_418" fill="white" stroke="gray" d="M739.5000118985772,1731.500025562942A6,6,0,1,1,727.5000118985772,1731.500025562942A6,6,0,1,1,739.5000118985772,1731.500025562942"></path><path id="kity_path_419" fill="none" stroke="gray" d="M729.0000118985772,1731.500025562942L738.0000118985772,1731.500025562942"></path></g><path id="node_outline48" fill="none" stroke="none" d="M744.5000121369958,1720.500025562942h35a5,5,0,0,1,5,5v12a5,5,0,0,1,-5,5h-35a5,5,0,0,1,-5,-5v-12a5,5,0,0,1,5,-5z" stroke-width="3"></path><g id="node_text48" fill="black"><text id="kity_text_415" text-rendering="inherit" font-size="12" dy=".8em" y="1723.70002553612" x="749.5000121369958">高级</text></g></g><g id="minder_node49"><g id="node_expander48" style="cursor: pointer;"><path id="kity_path_426" fill="white" stroke="gray" d="M1020.5000160858035,1081.5000158771873A6,6,0,1,1,1008.5000160858035,1081.5000158771873A6,6,0,1,1,1020.5000160858035,1081.5000158771873"></path><path id="kity_path_427" fill="none" stroke="gray" d="M1010.0000160858035,1081.5000158771873L1019.0000160858035,1081.5000158771873"></path></g><path id="node_outline49" fill="none" stroke="none" d="M1025.500016324222,1070.5000158771873h35a5,5,0,0,1,5,5v12a5,5,0,0,1,-5,5h-35a5,5,0,0,1,-5,-5v-12a5,5,0,0,1,5,-5z" stroke-width="3"></path><g id="node_text49" fill="black"><text id="kity_text_423" text-rendering="inherit" font-size="12" dy=".8em" y="1073.7000158503652" x="1030.500016324222">特点</text></g></g><g id="minder_node50"><g id="node_expander49" style="cursor: pointer;" display="none"><path id="kity_path_434" fill="white" stroke="gray" d="M1020.5000160858035,1289.5000189766288A6,6,0,1,1,1008.5000160858035,1289.5000189766288A6,6,0,1,1,1020.5000160858035,1289.5000189766288"></path><path id="kity_path_435" fill="none" stroke="gray"></path></g><path id="node_outline50" fill="none" stroke="none" d="M1025.500016324222,1278.5000189766288h71a5,5,0,0,1,5,5v12a5,5,0,0,1,-5,5h-71a5,5,0,0,1,-5,-5v-12a5,5,0,0,1,5,-5z" stroke-width="3"></path><g id="node_text50" fill="black"><text id="kity_text_431" text-rendering="inherit" font-size="12" dy=".8em" y="1281.7000189498067" x="1030.500016324222">完全二叉树</text></g></g><g id="minder_node51"><g id="node_expander50" style="cursor: pointer;" display="none"><path id="kity_path_442" fill="white" stroke="gray" d="M1020.5000160858035,1341.5000197514892A6,6,0,1,1,1008.5000160858035,1341.5000197514892A6,6,0,1,1,1020.5000160858035,1341.5000197514892"></path><path id="kity_path_443" fill="none" stroke="gray"></path></g><path id="node_outline51" fill="none" stroke="none" d="M1025.500016324222,1330.5000197514892h60a5,5,0,0,1,5,5v12a5,5,0,0,1,-5,5h-60a5,5,0,0,1,-5,-5v-12a5,5,0,0,1,5,-5z" stroke-width="3"></path><g id="node_text51" fill="black"><text id="kity_text_439" text-rendering="inherit" font-size="12" dy=".8em" y="1333.700019724667" x="1030.500016324222">满二叉树</text></g></g><g id="minder_node52"><g id="node_expander51" style="cursor: pointer;" display="none"><path id="kity_path_450" fill="white" stroke="gray" d="M1020.5000160858035,1393.5000205263495A6,6,0,1,1,1008.5000160858035,1393.5000205263495A6,6,0,1,1,1020.5000160858035,1393.5000205263495"></path><path id="kity_path_451" fill="none" stroke="gray"></path></g><path id="node_outline52" fill="none" stroke="none" d="M1025.500016324222,1382.5000205263495h71a5,5,0,0,1,5,5v12a5,5,0,0,1,-5,5h-71a5,5,0,0,1,-5,-5v-12a5,5,0,0,1,5,-5z" stroke-width="3"></path><g id="node_text52" fill="black"><text id="kity_text_447" text-rendering="inherit" font-size="12" dy=".8em" y="1385.7000204995275" x="1030.500016324222">二叉搜索树</text></g></g><g id="minder_node53"><g id="node_expander52" style="cursor: pointer;"><path id="kity_path_458" fill="white" stroke="gray" d="M1020.5000160858035,1445.50002130121A6,6,0,1,1,1008.5000160858035,1445.50002130121A6,6,0,1,1,1020.5000160858035,1445.50002130121"></path><path id="kity_path_459" fill="none" stroke="gray" d="M1010.0000160858035,1445.50002130121L1019.0000160858035,1445.50002130121"></path></g><path id="node_outline53" fill="none" stroke="none" d="M1025.500016324222,1434.50002130121h95a5,5,0,0,1,5,5v12a5,5,0,0,1,-5,5h-95a5,5,0,0,1,-5,-5v-12a5,5,0,0,1,5,-5z" stroke-width="3"></path><g id="node_text53" fill="black"><text id="kity_text_455" text-rendering="inherit" font-size="12" dy=".8em" y="1437.7000212743878" x="1030.500016324222">平衡二叉搜索树</text></g></g><g id="minder_node54"><g id="node_expander53" style="cursor: pointer;" display="none"><path id="kity_path_466" fill="white" stroke="gray" d="M1165.5000182464719,1445.50002130121A6,6,0,1,1,1153.5000182464719,1445.50002130121A6,6,0,1,1,1165.5000182464719,1445.50002130121"></path><path id="kity_path_467" fill="none" stroke="gray"></path></g><path id="node_outline54" fill="none" stroke="none" d="M1170.5000184848905,1434.50002130121h47a5,5,0,0,1,5,5v12a5,5,0,0,1,-5,5h-47a5,5,0,0,1,-5,-5v-12a5,5,0,0,1,5,-5z" stroke-width="3"></path><g id="node_text54" fill="black"><text id="kity_text_463" text-rendering="inherit" font-size="12" dy=".8em" y="1437.7000212743878" x="1175.5000184848905">红黑树</text></g></g><g id="minder_node55"><g id="node_expander54" style="cursor: pointer;" display="none"><path id="kity_path_474" fill="white" stroke="gray" d="M1105.5000173524022,1029.5000151023269A6,6,0,1,1,1093.5000173524022,1029.5000151023269A6,6,0,1,1,1105.5000173524022,1029.5000151023269"></path><path id="kity_path_475" fill="none" stroke="gray"></path></g><path id="node_outline55" fill="none" stroke="none" d="M1110.5000175908208,1018.5000151023269h132a5,5,0,0,1,5,5v12a5,5,0,0,1,-5,5h-132a5,5,0,0,1,-5,-5v-12a5,5,0,0,1,5,-5z" stroke-width="3"></path><g id="node_text55" fill="black"><text id="kity_text_471" text-rendering="inherit" font-size="12" dy=".8em" y="1021.7000150755048" x="1115.5000175908208">顺序和链式都可以实现</text></g></g><g id="minder_node56"><g id="node_expander55" style="cursor: pointer;"><path id="kity_path_482" fill="white" stroke="gray" d="M1105.5000173524022,1133.5000166520476A6,6,0,1,1,1093.5000173524022,1133.5000166520476A6,6,0,1,1,1105.5000173524022,1133.5000166520476"></path><path id="kity_path_483" fill="none" stroke="gray" d="M1095.0000173524022,1133.5000166520476L1104.0000173524022,1133.5000166520476"></path></g><path id="node_outline56" fill="none" stroke="none" d="M1110.5000175908208,1122.5000166520476h60a5,5,0,0,1,5,5v12a5,5,0,0,1,-5,5h-60a5,5,0,0,1,-5,-5v-12a5,5,0,0,1,5,-5z" stroke-width="3"></path><g id="node_text56" fill="black"><text id="kity_text_479" text-rendering="inherit" font-size="12" dy=".8em" y="1125.7000166252255" x="1115.5000175908208">遍历方式</text></g></g><g id="minder_node57"><g id="node_expander56" style="cursor: pointer;" display="none"><path id="kity_path_490" fill="white" stroke="gray" d="M1215.50001899153,1081.5000158771873A6,6,0,1,1,1203.50001899153,1081.5000158771873A6,6,0,1,1,1215.50001899153,1081.5000158771873"></path><path id="kity_path_491" fill="none" stroke="gray"></path></g><path id="node_outline57" fill="none" stroke="none" d="M1220.5000192299485,1070.5000158771873h84a5,5,0,0,1,5,5v12a5,5,0,0,1,-5,5h-84a5,5,0,0,1,-5,-5v-12a5,5,0,0,1,5,-5z" stroke-width="3"></path><g id="node_text57" fill="black"><text id="kity_text_487" text-rendering="inherit" font-size="12" dy=".8em" y="1073.7000158503652" x="1225.5000192299485">广度优先搜索</text></g></g><g id="minder_node58"><g id="node_expander57" style="cursor: pointer;"><path id="kity_path_498" fill="white" stroke="gray" d="M1215.50001899153,1185.500017426908A6,6,0,1,1,1203.50001899153,1185.500017426908A6,6,0,1,1,1215.50001899153,1185.500017426908"></path><path id="kity_path_499" fill="none" stroke="gray" d="M1205.00001899153,1185.500017426908L1214.00001899153,1185.500017426908"></path></g><path id="node_outline58" fill="none" stroke="none" d="M1220.5000192299485,1174.500017426908h86a5,5,0,0,1,5,5v12a5,5,0,0,1,-5,5h-86a5,5,0,0,1,-5,-5v-12a5,5,0,0,1,5,-5z" stroke-width="3"></path><g id="node_text58" fill="black"><text id="kity_text_495" text-rendering="inherit" font-size="12" dy=".8em" y="1177.700017400086" x="1225.5000192299485">深度优先搜索&#xa0;</text></g></g><g id="minder_node59"><g id="node_expander58" style="cursor: pointer;" display="none"><path id="kity_path_506" fill="white" stroke="gray" d="M1351.5000210180879,1133.5000166520476A6,6,0,1,1,1339.5000210180879,1133.5000166520476A6,6,0,1,1,1351.5000210180879,1133.5000166520476"></path><path id="kity_path_507" fill="none" stroke="gray"></path></g><path id="node_outline59" fill="none" stroke="none" d="M1356.5000212565064,1122.5000166520476h58a5,5,0,0,1,5,5v12a5,5,0,0,1,-5,5h-58a5,5,0,0,1,-5,-5v-12a5,5,0,0,1,5,-5z" stroke-width="3"></path><g id="node_text59" fill="black"><text id="kity_text_503" text-rendering="inherit" font-size="12" dy=".8em" y="1125.7000166252255" x="1361.5000212565064">前序遍历</text></g></g><g id="minder_node60"><g id="node_expander59" style="cursor: pointer;" display="none"><path id="kity_path_514" fill="white" stroke="gray" d="M1351.5000210180879,1185.500017426908A6,6,0,1,1,1339.5000210180879,1185.500017426908A6,6,0,1,1,1351.5000210180879,1185.500017426908"></path><path id="kity_path_515" fill="none" stroke="gray"></path></g><path id="node_outline60" fill="none" stroke="none" d="M1356.5000212565064,1174.500017426908h58a5,5,0,0,1,5,5v12a5,5,0,0,1,-5,5h-58a5,5,0,0,1,-5,-5v-12a5,5,0,0,1,5,-5z" stroke-width="3"></path><g id="node_text60" fill="black"><text id="kity_text_511" text-rendering="inherit" font-size="12" dy=".8em" y="1177.700017400086" x="1361.5000212565064">中序遍历</text></g></g><g id="minder_node61"><g id="node_expander60" style="cursor: pointer;" display="none"><path id="kity_path_522" fill="white" stroke="gray" d="M1351.5000210180879,1237.5000182017684A6,6,0,1,1,1339.5000210180879,1237.5000182017684A6,6,0,1,1,1351.5000210180879,1237.5000182017684"></path><path id="kity_path_523" fill="none" stroke="gray"></path></g><path id="node_outline61" fill="none" stroke="none" d="M1356.5000212565064,1226.5000182017684h59a5,5,0,0,1,5,5v12a5,5,0,0,1,-5,5h-59a5,5,0,0,1,-5,-5v-12a5,5,0,0,1,5,-5z" stroke-width="3"></path><g id="node_text61" fill="black"><text id="kity_text_519" text-rendering="inherit" font-size="12" dy=".8em" y="1229.7000181749463" x="1361.5000212565064">后序遍历</text></g></g><g id="minder_node62"><g id="node_expander61" style="cursor: pointer;" display="none"><path id="kity_path_530" fill="white" stroke="gray" d="M824.5000131651759,1653.5000244006515A6,6,0,1,1,812.5000131651759,1653.5000244006515A6,6,0,1,1,824.5000131651759,1653.5000244006515"></path><path id="kity_path_531" fill="none" stroke="gray"></path></g><path id="node_outline62" fill="none" stroke="none" d="M829.5000134035945,1642.5000244006515h71a5,5,0,0,1,5,5v12a5,5,0,0,1,-5,5h-71a5,5,0,0,1,-5,-5v-12a5,5,0,0,1,5,-5z" stroke-width="3"></path><g id="node_text62" fill="black"><text id="kity_text_527" text-rendering="inherit" font-size="12" dy=".8em" y="1645.7000243738294" x="834.5000134035945">二叉搜索树</text></g></g><g id="minder_node63"><g id="node_expander62" style="cursor: pointer;" display="none"><path id="kity_path_538" fill="white" stroke="gray" d="M824.5000131651759,1705.5000251755118A6,6,0,1,1,812.5000131651759,1705.5000251755118A6,6,0,1,1,824.5000131651759,1705.5000251755118"></path><path id="kity_path_539" fill="none" stroke="gray"></path></g><path id="node_outline63" fill="none" stroke="none" d="M829.5000134035945,1694.5000251755118h24a5,5,0,0,1,5,5v12a5,5,0,0,1,-5,5h-24a5,5,0,0,1,-5,-5v-12a5,5,0,0,1,5,-5z" stroke-width="3"></path><g id="node_text63" fill="black"><text id="kity_text_535" text-rendering="inherit" font-size="12" dy=".8em" y="1697.7000251486897" x="834.5000134035945">堆</text></g></g><g id="minder_node64"><g id="node_expander63" style="cursor: pointer;" display="none"><path id="kity_path_546" fill="white" stroke="gray" d="M824.5000131651759,1757.5000259503722A6,6,0,1,1,812.5000131651759,1757.5000259503722A6,6,0,1,1,824.5000131651759,1757.5000259503722"></path><path id="kity_path_547" fill="none" stroke="gray"></path></g><path id="node_outline64" fill="none" stroke="none" d="M829.5000134035945,1746.5000259503722h48a5,5,0,0,1,5,5v12a5,5,0,0,1,-5,5h-48a5,5,0,0,1,-5,-5v-12a5,5,0,0,1,5,-5z" stroke-width="3"></path><g id="node_text64" fill="black"><text id="kity_text_543" text-rendering="inherit" font-size="12" dy=".8em" y="1749.7000259235501" x="834.5000134035945">并查集</text></g></g><g id="minder_node65"><g id="node_expander64" style="cursor: pointer;" display="none"><path id="kity_path_554" fill="white" stroke="gray" d="M824.5000131651759,1809.5000267252326A6,6,0,1,1,812.5000131651759,1809.5000267252326A6,6,0,1,1,824.5000131651759,1809.5000267252326"></path><path id="kity_path_555" fill="none" stroke="gray"></path></g><path id="node_outline65" fill="none" stroke="none" d="M829.5000134035945,1798.5000267252326h47a5,5,0,0,1,5,5v12a5,5,0,0,1,-5,5h-47a5,5,0,0,1,-5,-5v-12a5,5,0,0,1,5,-5z" stroke-width="3"></path><g id="node_text65" fill="black"><text id="kity_text_551" text-rendering="inherit" font-size="12" dy=".8em" y="1801.7000266984105" x="834.5000134035945">字典树</text></g></g><g id="minder_node66"><g id="node_expander65" style="cursor: pointer;" display="none"><path id="kity_path_562" fill="white" stroke="gray" d="M180.5000035688281,999.500014655292A6,6,0,1,1,168.5000035688281,999.500014655292A6,6,0,1,1,180.5000035688281,999.500014655292"></path><path id="kity_path_563" fill="none" stroke="gray"></path></g><path id="node_outline66" fill="none" stroke="none" d="M60.500001944601536,988.500014655292h103a5,5,0,0,1,5,5v12a5,5,0,0,1,-5,5h-103a5,5,0,0,1,-5,-5v-12a5,5,0,0,1,5,-5z" stroke-width="3"></path><g id="node_text66" fill="black"><text id="kity_text_559" text-rendering="inherit" font-size="12" dy=".8em" y="991.70001462847" x="65.50000194460154">位运算符 bitwise</text></g></g><g id="minder_node67"><g id="node_expander66" style="cursor: pointer;" display="none"><path id="kity_path_570" fill="white" stroke="gray" d="M180.5000035688281,1051.5000154301524A6,6,0,1,1,168.5000035688281,1051.5000154301524A6,6,0,1,1,180.5000035688281,1051.5000154301524"></path><path id="kity_path_571" fill="none" stroke="gray"></path></g><path id="node_outline67" fill="none" stroke="none" d="M25.500001423060894,1040.5000154301524h138a5,5,0,0,1,5,5v12a5,5,0,0,1,-5,5h-138a5,5,0,0,1,-5,-5v-12a5,5,0,0,1,5,-5z" stroke-width="3"></path><g id="node_text67" fill="black"><text id="kity_text_567" text-rendering="inherit" font-size="12" dy=".8em" y="1043.7000154033303" x="30.500001423060894">布隆过滤器 bloomfilter</text></g></g><g id="minder_node68"><g id="node_expander67" style="cursor: pointer;" display="none"><path id="kity_path_578" fill="white" stroke="gray" d="M180.5000035688281,1103.5000162050128A6,6,0,1,1,168.5000035688281,1103.5000162050128A6,6,0,1,1,180.5000035688281,1103.5000162050128"></path><path id="kity_path_579" fill="none" stroke="gray"></path></g><path id="node_outline68" fill="none" stroke="none" d="M91.50000240653753,1092.5000162050128h72a5,5,0,0,1,5,5v12a5,5,0,0,1,-5,5h-72a5,5,0,0,1,-5,-5v-12a5,5,0,0,1,5,-5z" stroke-width="3"></path><g id="node_text68" fill="black"><text id="kity_text_575" text-rendering="inherit" font-size="12" dy=".8em" y="1095.7000161781907" x="96.50000240653753">LRU Cache</text></g></g></g></g></svg>