<svg id="kity_svg_6" xmlns="http://www.w3.org/2000/svg" xmlns:xlink="http://www.w3.org/1999/xlink" version="1.1" width="745" height="789" style="background: rgb(251, 251, 251); visibility: visible;" viewBox="0 0 745 789"><defs id="kity_defs_7"><linearGradient id="kity_linearGradient_17" x1="0" y1="0" x2="0" y2="1"><stop id="kity_stop_18" offset="0" stop-color="rgb(255, 255, 255)"></stop><stop id="kity_stop_19" offset="1" stop-color="rgb(204, 204, 204)"></stop></linearGradient><marker id="kity_marker_2" orient="auto" refX="6" refY="0" viewBox="-7 -7 14 14" markerWidth="7" markerHeight="7" markerUnits="userSpaceOnUse"><path id="kity_path_3" fill="rgb(115, 161, 191)" stroke="none" d="M6,0A6,6,0,1,1,-6,0A6,6,0,1,1,6,0"></path></marker></defs><g id="kity_g_8"><g id="minder1" text-rendering="optimize-speed"><g id="minder_connect_group1"><path id="kity_path_31" fill="none" stroke="rgb(115, 161, 191)" stroke-width="1" d="M293,393.5A158.5,336,0,0,1,451.5,57.5"></path><path id="kity_path_33" fill="none" stroke="rgb(115, 161, 191)" stroke-width="1" d="M537.5,57.5C552.5,57.5,552.5,45.5,567.5,45.5L658.5,45.5"></path><path id="kity_path_35" fill="none" stroke="rgb(115, 161, 191)" stroke-width="1" d="M537.5,57.5C552.5,57.5,552.5,97.5,567.5,97.5L659.5,97.5"></path><path id="kity_path_37" fill="none" stroke="rgb(115, 161, 191)" stroke-width="1" d="M293,393.5A158.5,222,0,0,1,451.5,171.5"></path><path id="kity_path_39" fill="none" stroke="rgb(115, 161, 191)" stroke-width="1" d="M523.5,171.5C538.5,171.5,538.5,159.5,553.5,159.5L632.5,159.5"></path><path id="kity_path_41" fill="none" stroke="rgb(115, 161, 191)" stroke-width="1" d="M523.5,171.5C538.5,171.5,538.5,211.5,553.5,211.5L725.5,211.5"></path><path id="kity_path_43" fill="none" stroke="rgb(115, 161, 191)" stroke-width="1" d="M293,393.5A158.5,108,0,0,1,451.5,285.5"></path><path id="kity_path_45" fill="none" stroke="rgb(115, 161, 191)" stroke-width="1" d="M523.5,285.5C538.5,285.5,538.5,273.5,553.5,273.5L631.5,273.5"></path><path id="kity_path_47" fill="none" stroke="rgb(115, 161, 191)" stroke-width="1" d="M523.5,285.5C538.5,285.5,538.5,325.5,553.5,325.5L721.5,325.5"></path><path id="kity_path_49" fill="none" stroke="rgb(115, 161, 191)" stroke-width="1" d="M293,393.5A158.5,18,0,0,1,451.5,375.5"></path><path id="kity_path_51" fill="none" stroke="rgb(115, 161, 191)" stroke-width="1" d="M509.5,375.5C524.5,375.5,524.5,389.5,539.5,389.5L618.5,389.5"></path><path id="kity_path_53" fill="none" stroke="rgb(115, 161, 191)" stroke-width="1" d="M293,393.5A158.5,48,0,0,0,451.5,441.5"></path><path id="kity_path_55" fill="none" stroke="rgb(115, 161, 191)" stroke-width="1" d="M521.5,441.5C536.5,441.5,536.5,455.5,551.5,455.5L630.5,455.5"></path><path id="kity_path_57" fill="none" stroke="rgb(115, 161, 191)" stroke-width="1" d="M293,393.5A158.5,114,0,0,0,451.5,507.5"></path><path id="kity_path_59" fill="none" stroke="rgb(115, 161, 191)" stroke-width="1" d="M522.5,507.5C537.5,507.5,537.5,521.5,552.5,521.5L716.5,521.5"></path><path id="kity_path_61" fill="none" stroke="rgb(115, 161, 191)" stroke-width="1" d="M293,393.5A158.5,180,0,0,0,451.5,573.5"></path><path id="kity_path_63" fill="none" stroke="rgb(115, 161, 191)" stroke-width="1" d="M523.5,573.5C538.5,573.5,538.5,587.5,553.5,587.5L644.5,587.5"></path><path id="kity_path_65" fill="none" stroke="rgb(115, 161, 191)" stroke-width="1" d="M293,393.5A158.5,246,0,0,0,451.5,639.5"></path><path id="kity_path_67" fill="none" stroke="rgb(115, 161, 191)" stroke-width="1" d="M293,393.5A158.5,336,0,0,0,451.5,729.5"></path><path id="kity_path_69" fill="none" stroke="rgb(115, 161, 191)" stroke-width="1" d="M509.5,729.5C524.5,729.5,524.5,717.5,539.5,717.5L606.5,717.5"></path><path id="kity_path_71" fill="none" stroke="rgb(115, 161, 191)" stroke-width="1" d="M509.5,729.5C524.5,729.5,524.5,769.5,539.5,769.5L607.5,769.5"></path><path id="kity_path_73" fill="none" stroke="rgb(115, 161, 191)" stroke-width="1" d="M293,393.5A158.5,231,0,0,0,134.5,162.5"></path><path id="kity_path_75" fill="none" stroke="rgb(115, 161, 191)" stroke-width="1" d="M293,393.5A158.5,165,0,0,0,134.5,228.5"></path><path id="kity_path_77" fill="none" stroke="rgb(115, 161, 191)" stroke-width="1" d="M293,393.5A158.5,99,0,0,0,134.5,294.5"></path><path id="kity_path_79" fill="none" stroke="rgb(115, 161, 191)" stroke-width="1" d="M293,393.5A158.5,33,0,0,0,134.5,360.5"></path><path id="kity_path_81" fill="none" stroke="rgb(115, 161, 191)" stroke-width="1" d="M293,393.5A158.5,33,0,0,1,134.5,426.5"></path><path id="kity_path_83" fill="none" stroke="rgb(115, 161, 191)" stroke-width="1" d="M293,393.5A158.5,99,0,0,1,134.5,492.5"></path><path id="kity_path_85" fill="none" stroke="rgb(115, 161, 191)" stroke-width="1" d="M293,393.5A158.5,165,0,0,1,134.5,558.5"></path><path id="kity_path_87" fill="none" stroke="rgb(115, 161, 191)" stroke-width="1" d="M293,393.5A158.5,231,0,0,1,134.5,624.5"></path></g><g id="minder_node1"><path id="node_outline1" fill="rgb(115, 161, 191)" stroke="rgb(57, 80, 96)" d="M257.5,373.5h71a5,5,0,0,1,5,5v30a5,5,0,0,1,-5,5h-71a5,5,0,0,1,-5,-5v-30a5,5,0,0,1,5,-5z" stroke-width="3"></path><g id="node_text1" fill="white"><text id="kity_text_22" text-rendering="inherit" font-size="16" dy=".8em" y="383.09999990463257" x="276.5">算法</text></g></g><g id="kity_g_12"><path id="kity_path_13" fill="none" stroke="none" d="M276.5,393.5h0v0h0z"></path></g><g id="kity_g_14"><path id="kity_path_15" fill="none" stroke="none" d="M276.5,393.5h0v0h0z"></path><path id="kity_path_16" fill="none" stroke="none"></path></g><g id="minder_node2"><g id="node_expander3" style="cursor: pointer;"><path id="kity_path_182" fill="white" stroke="gray" d="M452.5,57.5A6,6,0,1,1,440.5,57.5A6,6,0,1,1,452.5,57.5"></path><path id="kity_path_183" fill="none" stroke="gray" d="M442,57.5L451,57.5"></path></g><path id="node_outline4" fill="rgb(238, 243, 246)" stroke="rgb(115, 161, 191)" d="M456.5,44.5h78a3,3,0,0,1,3,3v20a3,3,0,0,1,-3,3h-78a3,3,0,0,1,-3,-3v-20a3,3,0,0,1,3,-3z" stroke-width="1"></path><g id="node_text4" fill="black"><text id="kity_text_93" text-rendering="inherit" font-size="14" dy=".8em" y="48.40000009536743" x="473.5">复杂度</text></g></g><g id="minder_node3"><g id="node_expander1" display="none" style="cursor: pointer;"><path id="kity_path_176" fill="white" stroke="gray" d="M577.5,31.5A6,6,0,1,1,565.5,31.5A6,6,0,1,1,577.5,31.5"></path><path id="kity_path_177" fill="none" stroke="gray"></path></g><path id="node_outline2" fill="none" stroke="none" d="M582.5,20.5h71a5,5,0,0,1,5,5v12a5,5,0,0,1,-5,5h-71a5,5,0,0,1,-5,-5v-12a5,5,0,0,1,5,-5z"></path><g id="node_text2" fill="black"><text id="kity_text_89" text-rendering="inherit" font-size="12" dy=".8em" y="23.700000047683716" x="587.5">时间复杂度</text></g></g><g id="minder_node4"><g id="node_expander2" display="none" style="cursor: pointer;"><path id="kity_path_179" fill="white" stroke="gray" d="M577.5,83.5A6,6,0,1,1,565.5,83.5A6,6,0,1,1,577.5,83.5"></path><path id="kity_path_180" fill="none" stroke="gray"></path></g><path id="node_outline3" fill="none" stroke="none" d="M582.5,72.5h72a5,5,0,0,1,5,5v12a5,5,0,0,1,-5,5h-72a5,5,0,0,1,-5,-5v-12a5,5,0,0,1,5,-5z"></path><g id="node_text3" fill="black"><text id="kity_text_91" text-rendering="inherit" font-size="12" dy=".8em" y="75.70000004768372" x="587.5">空间复杂度</text></g></g><g id="minder_node5"><g id="node_expander6" style="cursor: pointer;"><path id="kity_path_191" fill="white" stroke="gray" d="M452.5,171.5A6,6,0,1,1,440.5,171.5A6,6,0,1,1,452.5,171.5"></path><path id="kity_path_192" fill="none" stroke="gray" d="M442,171.5L451,171.5"></path></g><path id="node_outline7" fill="rgb(238, 243, 246)" stroke="rgb(115, 161, 191)" d="M456.5,158.5h64a3,3,0,0,1,3,3v20a3,3,0,0,1,-3,3h-64a3,3,0,0,1,-3,-3v-20a3,3,0,0,1,3,-3z" stroke-width="1"></path><g id="node_text7" fill="black"><text id="kity_text_99" text-rendering="inherit" font-size="14" dy=".8em" y="162.40000009536743" x="473.5">数组</text></g></g><g id="minder_node6"><g id="node_expander4" display="none" style="cursor: pointer;"><path id="kity_path_185" fill="white" stroke="gray" d="M563.5,145.5A6,6,0,1,1,551.5,145.5A6,6,0,1,1,563.5,145.5"></path><path id="kity_path_186" fill="none" stroke="gray"></path></g><path id="node_outline5" fill="none" stroke="none" d="M568.5,134.5h59a5,5,0,0,1,5,5v12a5,5,0,0,1,-5,5h-59a5,5,0,0,1,-5,-5v-12a5,5,0,0,1,5,-5z"></path><g id="node_text5" fill="black"><text id="kity_text_95" text-rendering="inherit" font-size="12" dy=".8em" y="137.70000004768372" x="573.5">连续空间</text></g></g><g id="minder_node7"><g id="node_expander5" display="none" style="cursor: pointer;"><path id="kity_path_188" fill="white" stroke="gray" d="M563.5,197.5A6,6,0,1,1,551.5,197.5A6,6,0,1,1,563.5,197.5"></path><path id="kity_path_189" fill="none" stroke="gray"></path></g><path id="node_outline6" fill="none" stroke="none" d="M568.5,186.5h152a5,5,0,0,1,5,5v12a5,5,0,0,1,-5,5h-152a5,5,0,0,1,-5,-5v-12a5,5,0,0,1,5,-5z"></path><g id="node_text6" fill="black"><text id="kity_text_97" text-rendering="inherit" font-size="12" dy=".8em" y="189.70000004768372" x="573.5">查找块、插入/删除结点慢&#xa0;</text></g></g><g id="minder_node8"><g id="node_expander9" style="cursor: pointer;"><path id="kity_path_200" fill="white" stroke="gray" d="M452.5,285.5A6,6,0,1,1,440.5,285.5A6,6,0,1,1,452.5,285.5"></path><path id="kity_path_201" fill="none" stroke="gray" d="M442,285.5L451,285.5"></path></g><path id="node_outline10" fill="rgb(238, 243, 246)" stroke="rgb(115, 161, 191)" d="M456.5,272.5h64a3,3,0,0,1,3,3v20a3,3,0,0,1,-3,3h-64a3,3,0,0,1,-3,-3v-20a3,3,0,0,1,3,-3z" stroke-width="1"></path><g id="node_text10" fill="black"><text id="kity_text_105" text-rendering="inherit" font-size="14" dy=".8em" y="276.40000009536743" x="473.5">链表</text></g></g><g id="minder_node9"><g id="node_expander7" display="none" style="cursor: pointer;"><path id="kity_path_194" fill="white" stroke="gray" d="M563.5,259.5A6,6,0,1,1,551.5,259.5A6,6,0,1,1,563.5,259.5"></path><path id="kity_path_195" fill="none" stroke="gray"></path></g><path id="node_outline8" fill="none" stroke="none" d="M568.5,248.5h58a5,5,0,0,1,5,5v12a5,5,0,0,1,-5,5h-58a5,5,0,0,1,-5,-5v-12a5,5,0,0,1,5,-5z"></path><g id="node_text8" fill="black"><text id="kity_text_101" text-rendering="inherit" font-size="12" dy=".8em" y="251.70000004768372" x="573.5">离散空间</text></g></g><g id="minder_node10"><g id="node_expander8" display="none" style="cursor: pointer;"><path id="kity_path_197" fill="white" stroke="gray" d="M563.5,311.5A6,6,0,1,1,551.5,311.5A6,6,0,1,1,563.5,311.5"></path><path id="kity_path_198" fill="none" stroke="gray"></path></g><path id="node_outline9" fill="none" stroke="none" d="M568.5,300.5h148a5,5,0,0,1,5,5v12a5,5,0,0,1,-5,5h-148a5,5,0,0,1,-5,-5v-12a5,5,0,0,1,5,-5z"></path><g id="node_text9" fill="black"><text id="kity_text_103" text-rendering="inherit" font-size="12" dy=".8em" y="303.7000000476837" x="573.5">查找慢，插入/删除结点快</text></g></g><g id="minder_node11"><g id="node_expander11" style="cursor: pointer;"><path id="kity_path_206" fill="white" stroke="gray" d="M452.5,375.5A6,6,0,1,1,440.5,375.5A6,6,0,1,1,452.5,375.5"></path><path id="kity_path_207" fill="none" stroke="gray" d="M442,375.5L451,375.5"></path></g><path id="node_outline12" fill="rgb(238, 243, 246)" stroke="rgb(115, 161, 191)" d="M456.5,362.5h50a3,3,0,0,1,3,3v20a3,3,0,0,1,-3,3h-50a3,3,0,0,1,-3,-3v-20a3,3,0,0,1,3,-3z" stroke-width="1"></path><g id="node_text12" fill="black"><text id="kity_text_109" text-rendering="inherit" font-size="14" dy=".8em" y="366.40000009536743" x="473.5">栈</text></g></g><g id="minder_node12"><g id="node_expander10" display="none" style="cursor: pointer;"><path id="kity_path_203" fill="white" stroke="gray" d="M549.5,375.5A6,6,0,1,1,537.5,375.5A6,6,0,1,1,549.5,375.5"></path><path id="kity_path_204" fill="none" stroke="gray"></path></g><path id="node_outline11" fill="none" stroke="none" d="M554.5,364.5h59a5,5,0,0,1,5,5v12a5,5,0,0,1,-5,5h-59a5,5,0,0,1,-5,-5v-12a5,5,0,0,1,5,-5z"></path><g id="node_text11" fill="black"><text id="kity_text_107" text-rendering="inherit" font-size="12" dy=".8em" y="367.7000000476837" x="559.5">先进后出</text></g></g><g id="minder_node13"><g id="node_expander13" style="cursor: pointer;"><path id="kity_path_212" fill="white" stroke="gray" d="M452.5,441.5A6,6,0,1,1,440.5,441.5A6,6,0,1,1,452.5,441.5"></path><path id="kity_path_213" fill="none" stroke="gray" d="M442,441.5L451,441.5"></path></g><path id="node_outline14" fill="rgb(238, 243, 246)" stroke="rgb(115, 161, 191)" d="M456.5,428.5h62a3,3,0,0,1,3,3v20a3,3,0,0,1,-3,3h-62a3,3,0,0,1,-3,-3v-20a3,3,0,0,1,3,-3z" stroke-width="1"></path><g id="node_text14" fill="black"><text id="kity_text_113" text-rendering="inherit" font-size="14" dy=".8em" y="432.40000009536743" x="473.5">队列</text></g></g><g id="minder_node14"><g id="node_expander12" display="none" style="cursor: pointer;"><path id="kity_path_209" fill="white" stroke="gray" d="M561.5,441.5A6,6,0,1,1,549.5,441.5A6,6,0,1,1,561.5,441.5"></path><path id="kity_path_210" fill="none" stroke="gray"></path></g><path id="node_outline13" fill="none" stroke="none" d="M566.5,430.5h59a5,5,0,0,1,5,5v12a5,5,0,0,1,-5,5h-59a5,5,0,0,1,-5,-5v-12a5,5,0,0,1,5,-5z"></path><g id="node_text13" fill="black"><text id="kity_text_111" text-rendering="inherit" font-size="12" dy=".8em" y="433.7000000476837" x="571.5">先进先出</text></g></g><g id="minder_node15"><g id="node_expander15" style="cursor: pointer;"><path id="kity_path_218" fill="white" stroke="gray" d="M452.5,507.5A6,6,0,1,1,440.5,507.5A6,6,0,1,1,452.5,507.5"></path><path id="kity_path_219" fill="none" stroke="gray" d="M442,507.5L451,507.5"></path></g><path id="node_outline16" fill="rgb(238, 243, 246)" stroke="rgb(115, 161, 191)" d="M456.5,494.5h63a3,3,0,0,1,3,3v20a3,3,0,0,1,-3,3h-63a3,3,0,0,1,-3,-3v-20a3,3,0,0,1,3,-3z" stroke-width="1"></path><g id="node_text16" fill="black"><text id="kity_text_117" text-rendering="inherit" font-size="14" dy=".8em" y="498.40000009536743" x="473.5">映射</text></g></g><g id="minder_node16"><g id="node_expander14" display="none" style="cursor: pointer;"><path id="kity_path_215" fill="white" stroke="gray" d="M562.5,507.5A6,6,0,1,1,550.5,507.5A6,6,0,1,1,562.5,507.5"></path><path id="kity_path_216" fill="none" stroke="gray"></path></g><path id="node_outline15" fill="none" stroke="none" d="M567.5,496.5h144a5,5,0,0,1,5,5v12a5,5,0,0,1,-5,5h-144a5,5,0,0,1,-5,-5v-12a5,5,0,0,1,5,-5z"></path><g id="node_text15" fill="black"><text id="kity_text_115" text-rendering="inherit" font-size="12" dy=".8em" y="499.7000000476837" x="572.5">K/V 键值对，Key 不重复</text></g></g><g id="minder_node17"><g id="node_expander17" style="cursor: pointer;"><path id="kity_path_224" fill="white" stroke="gray" d="M452.5,573.5A6,6,0,1,1,440.5,573.5A6,6,0,1,1,452.5,573.5"></path><path id="kity_path_225" fill="none" stroke="gray" d="M442,573.5L451,573.5"></path></g><path id="node_outline18" fill="rgb(238, 243, 246)" stroke="rgb(115, 161, 191)" d="M456.5,560.5h64a3,3,0,0,1,3,3v20a3,3,0,0,1,-3,3h-64a3,3,0,0,1,-3,-3v-20a3,3,0,0,1,3,-3z" stroke-width="1"></path><g id="node_text18" fill="black"><text id="kity_text_121" text-rendering="inherit" font-size="14" dy=".8em" y="564.4000000953674" x="473.5">集合</text></g></g><g id="minder_node18"><g id="node_expander16" display="none" style="cursor: pointer;"><path id="kity_path_221" fill="white" stroke="gray" d="M563.5,573.5A6,6,0,1,1,551.5,573.5A6,6,0,1,1,563.5,573.5"></path><path id="kity_path_222" fill="none" stroke="gray"></path></g><path id="node_outline17" fill="none" stroke="none" d="M568.5,562.5h71a5,5,0,0,1,5,5v12a5,5,0,0,1,-5,5h-71a5,5,0,0,1,-5,-5v-12a5,5,0,0,1,5,-5z"></path><g id="node_text17" fill="black"><text id="kity_text_119" text-rendering="inherit" font-size="12" dy=".8em" y="565.7000000476837" x="573.5">Key 不重复</text></g></g><g id="minder_node19"><g id="node_expander18" display="none" style="cursor: pointer;"><path id="kity_path_227" fill="white" stroke="gray" d="M452.5,639.5A6,6,0,1,1,440.5,639.5A6,6,0,1,1,452.5,639.5"></path><path id="kity_path_228" fill="none" stroke="gray"></path></g><path id="node_outline19" fill="rgb(238, 243, 246)" stroke="rgb(115, 161, 191)" d="M456.5,626.5h78a3,3,0,0,1,3,3v20a3,3,0,0,1,-3,3h-78a3,3,0,0,1,-3,-3v-20a3,3,0,0,1,3,-3z" stroke-width="1"></path><g id="node_text19" fill="black"><text id="kity_text_123" text-rendering="inherit" font-size="14" dy=".8em" y="630.4000000953674" x="473.5">并查集</text></g></g><g id="minder_node20"><g id="node_expander21" style="cursor: pointer;"><path id="kity_path_236" fill="white" stroke="gray" d="M452.5,729.5A6,6,0,1,1,440.5,729.5A6,6,0,1,1,452.5,729.5"></path><path id="kity_path_237" fill="none" stroke="gray" d="M442,729.5L451,729.5"></path></g><path id="node_outline22" fill="rgb(238, 243, 246)" stroke="rgb(115, 161, 191)" d="M456.5,716.5h50a3,3,0,0,1,3,3v20a3,3,0,0,1,-3,3h-50a3,3,0,0,1,-3,-3v-20a3,3,0,0,1,3,-3z" stroke-width="1"></path><g id="node_text22" fill="black"><text id="kity_text_129" text-rendering="inherit" font-size="14" dy=".8em" y="720.4000000953674" x="473.5">树</text></g></g><g id="minder_node21"><g id="node_expander19" display="none" style="cursor: pointer;"><path id="kity_path_230" fill="white" stroke="gray" d="M549.5,703.5A6,6,0,1,1,537.5,703.5A6,6,0,1,1,549.5,703.5"></path><path id="kity_path_231" fill="none" stroke="gray"></path></g><path id="node_outline20" fill="none" stroke="none" d="M554.5,692.5h47a5,5,0,0,1,5,5v12a5,5,0,0,1,-5,5h-47a5,5,0,0,1,-5,-5v-12a5,5,0,0,1,5,-5z"></path><g id="node_text20" fill="black"><text id="kity_text_125" text-rendering="inherit" font-size="12" dy=".8em" y="695.7000000476837" x="559.5">二叉树</text></g></g><g id="minder_node22"><g id="node_expander20" display="none" style="cursor: pointer;"><path id="kity_path_233" fill="white" stroke="gray" d="M549.5,755.5A6,6,0,1,1,537.5,755.5A6,6,0,1,1,549.5,755.5"></path><path id="kity_path_234" fill="none" stroke="gray"></path></g><path id="node_outline21" fill="none" stroke="none" d="M554.5,744.5h48a5,5,0,0,1,5,5v12a5,5,0,0,1,-5,5h-48a5,5,0,0,1,-5,-5v-12a5,5,0,0,1,5,-5z"></path><g id="node_text21" fill="black"><text id="kity_text_127" text-rendering="inherit" font-size="12" dy=".8em" y="747.7000000476837" x="559.5">字典树</text></g></g><g id="minder_node23"><g id="node_expander22" display="none" style="cursor: pointer;"><path id="kity_path_239" fill="white" stroke="gray" d="M145.5,162.5A6,6,0,1,1,133.5,162.5A6,6,0,1,1,145.5,162.5"></path><path id="kity_path_240" fill="none" stroke="gray"></path></g><path id="node_outline23" fill="rgb(238, 243, 246)" stroke="rgb(115, 161, 191)" d="M81.5,149.5h48a3,3,0,0,1,3,3v20a3,3,0,0,1,-3,3h-48a3,3,0,0,1,-3,-3v-20a3,3,0,0,1,3,-3z" stroke-width="1"></path><g id="node_text23" fill="black"><text id="kity_text_131" text-rendering="inherit" font-size="14" dy=".8em" y="153.40000009536743" x="98.5">图</text></g></g><g id="minder_node24"><g id="node_expander23" display="none" style="cursor: pointer;"><path id="kity_path_242" fill="white" stroke="gray" d="M145.5,228.5A6,6,0,1,1,133.5,228.5A6,6,0,1,1,145.5,228.5"></path><path id="kity_path_243" fill="none" stroke="gray"></path></g><path id="node_outline24" fill="rgb(238, 243, 246)" stroke="rgb(115, 161, 191)" d="M23.5,215.5h106a3,3,0,0,1,3,3v20a3,3,0,0,1,-3,3h-106a3,3,0,0,1,-3,-3v-20a3,3,0,0,1,3,-3z" stroke-width="1"></path><g id="node_text24" fill="black"><text id="kity_text_133" text-rendering="inherit" font-size="14" dy=".8em" y="219.40000009536743" x="40.5">递归、分治</text></g></g><g id="minder_node25"><g id="node_expander24" display="none" style="cursor: pointer;"><path id="kity_path_245" fill="white" stroke="gray" d="M145.5,294.5A6,6,0,1,1,133.5,294.5A6,6,0,1,1,145.5,294.5"></path><path id="kity_path_246" fill="none" stroke="gray"></path></g><path id="node_outline25" fill="rgb(238, 243, 246)" stroke="rgb(115, 161, 191)" d="M38.5,281.5h91a3,3,0,0,1,3,3v20a3,3,0,0,1,-3,3h-91a3,3,0,0,1,-3,-3v-20a3,3,0,0,1,3,-3z" stroke-width="1"></path><g id="node_text25" fill="black"><text id="kity_text_135" text-rendering="inherit" font-size="14" dy=".8em" y="285.40000009536743" x="55.5">二分查找</text></g></g><g id="minder_node26"><g id="node_expander25" display="none" style="cursor: pointer;"><path id="kity_path_248" fill="white" stroke="gray" d="M145.5,360.5A6,6,0,1,1,133.5,360.5A6,6,0,1,1,145.5,360.5"></path><path id="kity_path_249" fill="none" stroke="gray"></path></g><path id="node_outline26" fill="rgb(238, 243, 246)" stroke="rgb(115, 161, 191)" d="M37.5,347.5h92a3,3,0,0,1,3,3v20a3,3,0,0,1,-3,3h-92a3,3,0,0,1,-3,-3v-20a3,3,0,0,1,3,-3z" stroke-width="1"></path><g id="node_text26" fill="black"><text id="kity_text_137" text-rendering="inherit" font-size="14" dy=".8em" y="351.40000009536743" x="54.5">贪心算法</text></g></g><g id="minder_node27"><g id="node_expander26" display="none" style="cursor: pointer;"><path id="kity_path_251" fill="white" stroke="gray" d="M145.5,426.5A6,6,0,1,1,133.5,426.5A6,6,0,1,1,145.5,426.5"></path><path id="kity_path_252" fill="none" stroke="gray"></path></g><path id="node_outline27" fill="rgb(238, 243, 246)" stroke="rgb(115, 161, 191)" d="M39.5,413.5h90a3,3,0,0,1,3,3v20a3,3,0,0,1,-3,3h-90a3,3,0,0,1,-3,-3v-20a3,3,0,0,1,3,-3z" stroke-width="1"></path><g id="node_text27" fill="black"><text id="kity_text_139" text-rendering="inherit" font-size="14" dy=".8em" y="417.40000009536743" x="56.5">动态规划</text></g></g><g id="minder_node28"><g id="node_expander27" display="none" style="cursor: pointer;"><path id="kity_path_254" fill="white" stroke="gray" d="M145.5,492.5A6,6,0,1,1,133.5,492.5A6,6,0,1,1,145.5,492.5"></path><path id="kity_path_255" fill="none" stroke="gray"></path></g><path id="node_outline28" fill="rgb(238, 243, 246)" stroke="rgb(115, 161, 191)" d="M51.5,479.5h78a3,3,0,0,1,3,3v20a3,3,0,0,1,-3,3h-78a3,3,0,0,1,-3,-3v-20a3,3,0,0,1,3,-3z" stroke-width="1"></path><g id="node_text28" fill="black"><text id="kity_text_141" text-rendering="inherit" font-size="14" dy=".8em" y="483.40000009536743" x="68.5">位运算</text></g></g><g id="minder_node29"><g id="node_expander28" display="none" style="cursor: pointer;"><path id="kity_path_257" fill="white" stroke="gray" d="M145.5,558.5A6,6,0,1,1,133.5,558.5A6,6,0,1,1,145.5,558.5"></path><path id="kity_path_258" fill="none" stroke="gray"></path></g><path id="node_outline29" fill="rgb(238, 243, 246)" stroke="rgb(115, 161, 191)" d="M23.5,545.5h106a3,3,0,0,1,3,3v20a3,3,0,0,1,-3,3h-106a3,3,0,0,1,-3,-3v-20a3,3,0,0,1,3,-3z" stroke-width="1"></path><g id="node_text29" fill="black"><text id="kity_text_143" text-rendering="inherit" font-size="14" dy=".8em" y="549.4000000953674" x="40.5">布隆过滤器</text></g></g><g id="minder_node30"><g id="node_expander29" display="none" style="cursor: pointer;"><path id="kity_path_260" fill="white" stroke="gray" d="M145.5,624.5A6,6,0,1,1,133.5,624.5A6,6,0,1,1,145.5,624.5"></path><path id="kity_path_261" fill="none" stroke="gray"></path></g><path id="node_outline30" fill="rgb(238, 243, 246)" stroke="rgb(115, 161, 191)" d="M68.5,611.5h61a3,3,0,0,1,3,3v20a3,3,0,0,1,-3,3h-61a3,3,0,0,1,-3,-3v-20a3,3,0,0,1,3,-3z" stroke-width="1"></path><g id="node_text30" fill="black"><text id="kity_text_145" text-rendering="inherit" font-size="14" dy=".8em" y="615.4000000953674" x="85.5">LRU</text></g></g></g></g></svg>